<svg width="56" height="56" viewBox="0 0 56 56" fill="none" xmlns="http://www.w3.org/2000/svg">
<path d="M28.4649 41.0802C28.0329 41.2242 27.2889 41.2242 26.8569 41.0802C23.1129 39.8082 14.7129 34.4562 14.7129 25.3842C14.7129 21.3762 17.9289 18.1362 21.9129 18.1362C24.2649 18.1362 26.3529 19.2642 27.6729 21.0402C28.9689 19.2882 31.0809 18.1362 33.4329 18.1362C37.4169 18.1362 40.6329 21.3762 40.6329 25.3842C40.6329 34.4562 32.2329 39.8082 28.4649 41.0802Z" stroke="#7C6558" stroke-width="6.75" stroke-linecap="round" stroke-linejoin="round"/>
<path d="M8.47383 13.6C5.47383 17.608 3.67383 22.6 3.67383 28C3.67383 41.248 14.4258 52 27.6738 52C40.9218 52 51.6738 41.248 51.6738 28C51.6738 14.752 40.9218 4 27.6738 4C24.2418 4 20.9538 4.72002 18.0018 6.04002" stroke="#7C6558" stroke-width="6.75" stroke-linecap="round" stroke-linejoin="round"/>
</svg>
