<svg width="73" height="72" viewBox="0 0 73 72" fill="none" xmlns="http://www.w3.org/2000/svg">
<path fill-rule="evenodd" clip-rule="evenodd" d="M45.0914 16.0024H27.9506C21.6396 16.0024 16.5234 21.1185 16.5234 27.4296V44.5704C16.5234 50.8813 21.6396 55.9976 27.9506 55.9976H45.0914C51.4024 55.9976 56.5186 50.8813 56.5186 44.5704V27.4296C56.5186 21.1185 51.4024 16.0024 45.0914 16.0024Z" stroke="#FFF5EF" stroke-width="3" stroke-linecap="round" stroke-linejoin="round"/>
<path fill-rule="evenodd" clip-rule="evenodd" d="M36.521 44.5704C31.7876 44.5704 27.9506 40.7334 27.9506 36C27.9506 31.2665 31.7876 27.4296 36.521 27.4296C41.2545 27.4296 45.0914 31.2665 45.0914 36C45.0914 38.2728 44.1884 40.4529 42.5812 42.0601C40.9739 43.6673 38.7939 44.5704 36.521 44.5704Z" stroke="#FFF5EF" stroke-width="3" stroke-linecap="round" stroke-linejoin="round"/>
<path d="M47.9482 21.716C46.3705 21.716 45.0914 22.995 45.0914 24.5728C45.0914 26.1505 46.3705 27.4296 47.9482 27.4296C49.526 27.4296 50.805 26.1505 50.805 24.5728C50.805 22.995 49.526 21.716 47.9482 21.716Z" fill="#FFF5EF"/>
<path d="M47.9478 23.1452C47.1592 23.1452 46.5198 23.7845 46.5198 24.5732C46.5198 25.3618 47.1592 26.0012 47.9478 26.0012C48.7365 26.0012 49.3758 25.3618 49.3758 24.5732C49.3758 23.7845 48.7365 23.1452 47.9478 23.1452Z" stroke="#FFF5EF" stroke-width="3" stroke-linecap="round"/>
</svg>
