<svg width="38" height="38" viewBox="0 0 38 38" fill="none" xmlns="http://www.w3.org/2000/svg">
<g id="Group">
<path id="Vector" d="M30.0801 12.1375C32.7973 12.1375 35.0001 10.092 35.0001 7.56875C35.0001 5.0455 32.7973 3 30.0801 3C27.3627 3 25.1602 5.0455 25.1602 7.56875C25.1602 10.092 27.3627 12.1375 30.0801 12.1375Z" stroke="#7C6558" stroke-width="4.5" stroke-miterlimit="10" stroke-linecap="round" stroke-linejoin="round"/>
<path id="Vector_2" d="M12.8399 7.56875C12.8399 5.04294 10.64 3 7.91999 3C5.20001 3 3 5.04294 3 7.56875C3 10.0946 5.20001 12.1375 7.91999 12.1375" stroke="#7C6558" stroke-width="4.5" stroke-miterlimit="10" stroke-linecap="round" stroke-linejoin="round"/>
<path id="Vector_3" d="M30.0801 35C32.8001 35 35.0001 32.9571 35.0001 30.4313C35.0001 27.9055 32.8001 25.8625 30.0801 25.8625C27.3601 25.8625 25.1602 27.9055 25.1602 30.4313" stroke="#7C6558" stroke-width="4.5" stroke-miterlimit="10" stroke-linecap="round" stroke-linejoin="round"/>
<path id="Vector_4" d="M7.91999 34.9812C10.6372 34.9812 12.8399 32.9359 12.8399 30.4125C12.8399 27.8893 10.6372 25.8438 7.91999 25.8438C5.20277 25.8438 3 27.8893 3 30.4125C3 32.9359 5.20277 34.9812 7.91999 34.9812Z" stroke="#7C6558" stroke-width="4.5" stroke-miterlimit="10" stroke-linecap="round" stroke-linejoin="round"/>
</g>
</svg>
