<?xml version="1.0" standalone="no"?>
<!DOCTYPE svg PUBLIC "-//W3C//DTD SVG 20010904//EN"
 "http://www.w3.org/TR/2001/REC-SVG-20010904/DTD/svg10.dtd">
<svg version="1.0" xmlns="http://www.w3.org/2000/svg"
 width="1849.000000pt" height="469.000000pt" viewBox="0 0 1849.000000 469.000000"
 preserveAspectRatio="xMidYMid meet">

<g transform="translate(0.000000,469.000000) scale(0.100000,-0.100000)"
fill="#000000" stroke="none">
<path d="M20 4606 c0 -51 2 -54 31 -66 36 -15 133 -108 169 -163 34 -51 67
-67 140 -67 46 0 64 -4 79 -19 46 -46 51 -168 12 -271 -29 -76 -80 -132 -156
-171 -56 -29 -65 -37 -59 -54 4 -11 9 -40 11 -65 4 -39 1 -49 -22 -72 -30 -30
-84 -58 -112 -58 -10 0 -35 9 -56 19 l-37 19 0 -124 0 -123 33 -17 c57 -30
106 -74 153 -140 25 -36 54 -69 64 -74 10 -6 46 -10 80 -10 54 0 65 -3 90 -28
54 -54 49 -206 -11 -311 -32 -56 -109 -122 -165 -143 -29 -10 -34 -16 -29 -33
28 -92 12 -140 -59 -175 -53 -25 -82 -25 -123 0 l-33 20 0 -128 0 -128 44 -21
c24 -12 67 -49 97 -83 127 -146 105 -131 187 -133 66 -2 76 -5 97 -29 45 -52
42 -190 -5 -292 -26 -55 -90 -116 -160 -151 -40 -20 -50 -30 -45 -43 17 -41
17 -102 1 -127 -41 -63 -138 -85 -190 -44 l-26 20 0 -128 0 -129 44 -21 c24
-12 67 -49 97 -83 30 -34 68 -78 85 -98 30 -34 34 -36 105 -38 62 -2 77 -6 91
-24 31 -39 42 -98 31 -175 -19 -129 -78 -214 -190 -272 -45 -23 -53 -31 -47
-48 4 -11 9 -41 11 -66 4 -42 2 -48 -31 -77 -20 -17 -53 -36 -75 -43 -35 -10
-44 -9 -76 10 -20 11 -38 21 -41 21 -2 0 -4 -29 -4 -65 l0 -65 400 0 400 0 -6
43 c-4 26 -14 48 -27 57 -43 30 -57 51 -57 83 0 41 17 65 60 86 24 11 37 27
47 56 28 83 116 144 219 153 117 9 216 -43 304 -159 60 -79 91 -98 160 -97 87
2 120 -41 120 -157 l0 -65 751 0 751 0 -7 48 c-4 26 -12 49 -18 51 -7 2 -25
17 -41 33 -24 25 -28 34 -22 66 6 38 38 71 69 72 10 0 20 8 23 18 42 132 146
202 285 189 102 -9 181 -60 264 -171 56 -73 66 -79 148 -81 49 -1 62 -6 85
-28 24 -25 27 -36 31 -112 l3 -85 755 0 755 0 -6 23 c-3 12 -6 32 -6 44 0 13
-12 29 -34 42 -68 43 -64 126 9 156 22 10 36 25 44 47 47 136 208 203 353 149
74 -28 116 -63 189 -155 40 -51 67 -77 82 -78 12 0 43 -2 68 -2 87 -2 119 -48
119 -168 l0 -58 751 0 751 0 -7 48 c-4 26 -12 49 -18 51 -30 11 -67 61 -67 91
0 36 38 80 70 80 11 0 23 8 26 18 30 94 85 153 168 177 142 42 268 -10 376
-155 56 -75 81 -89 163 -87 39 0 53 -5 74 -26 24 -23 27 -36 31 -111 l5 -86
752 0 752 0 -8 43 c-4 23 -8 45 -9 48 0 3 -11 11 -25 17 -14 6 -32 27 -41 45
-14 30 -15 38 -3 63 8 16 29 36 47 45 23 12 41 35 64 79 61 123 203 172 344
119 59 -22 122 -78 209 -183 40 -48 40 -48 109 -52 39 -2 79 -10 92 -19 29
-19 47 -82 42 -152 l-3 -53 754 0 753 0 -7 47 c-4 27 -12 50 -18 52 -7 2 -24
17 -39 32 -49 49 -31 117 37 139 19 6 35 18 35 26 0 8 9 32 19 53 62 120 234
166 367 98 60 -30 96 -63 154 -140 53 -71 65 -78 149 -83 96 -6 113 -26 119
-138 l5 -86 750 0 750 0 -7 47 c-3 27 -12 50 -19 52 -23 8 -67 60 -67 80 0 38
23 70 60 85 29 11 40 22 45 45 11 49 61 109 117 138 45 23 65 28 133 28 106 0
173 -31 247 -117 29 -33 67 -76 83 -95 29 -33 36 -35 99 -39 38 -2 79 -10 91
-18 29 -19 50 -101 41 -162 l-6 -44 756 0 756 0 -6 31 c-3 17 -6 40 -6 50 0
11 -6 19 -14 19 -23 0 -66 59 -66 91 0 35 39 79 70 79 11 0 23 8 26 18 31 98
84 153 170 178 74 21 155 14 220 -19 64 -34 91 -58 153 -139 57 -73 83 -87
163 -85 77 1 108 -44 108 -158 l0 -65 290 0 290 0 0 85 0 85 -27 -11 c-24 -9
-58 -7 -150 7 -66 10 -85 73 -37 121 22 21 32 25 67 20 23 -2 50 -8 60 -12 13
-6 17 -2 17 19 0 17 -10 33 -31 48 -68 50 -127 161 -144 270 -5 33 -14 47 -38
63 -66 42 -61 116 11 150 23 11 42 25 42 33 0 22 37 86 67 114 30 29 113 68
144 68 18 0 19 9 19 133 l0 132 -93 0 c-72 0 -99 4 -120 18 -36 23 -37 68 -1
104 22 21 32 25 67 20 23 -2 50 -8 60 -12 13 -6 17 -2 17 19 0 17 -15 39 -50
72 -60 56 -106 144 -121 232 -9 51 -16 65 -34 72 -30 11 -55 48 -55 80 0 36
25 67 65 80 19 6 35 18 35 26 0 24 36 87 67 116 33 31 108 67 141 68 22 0 22
2 22 133 l0 132 -88 0 c-107 1 -146 16 -150 61 -2 19 5 40 19 58 22 27 25 28
86 23 60 -6 63 -5 63 16 0 14 -18 37 -49 65 -60 51 -107 141 -122 232 -10 58
-15 67 -43 81 -66 33 -56 123 19 154 22 10 35 23 39 42 20 77 122 163 196 163
l30 0 0 133 0 132 -88 1 c-111 1 -152 19 -152 67 1 68 51 95 138 73 28 -7 32
-5 32 14 0 12 -23 43 -55 75 -62 60 -97 128 -116 222 -9 49 -17 66 -38 79 -35
23 -50 45 -51 71 0 39 22 72 60 87 28 11 39 22 43 43 14 71 103 148 187 162
34 6 35 8 38 54 l3 47 -295 0 c-275 0 -296 -1 -296 -17 -1 -31 -36 -97 -78
-144 -34 -38 -71 -62 -160 -106 -2 0 4 -15 12 -32 37 -71 -2 -145 -93 -172
-40 -12 -47 -11 -87 11 -72 38 -69 96 7 126 60 25 50 40 -33 47 -79 7 -88 4
-88 -23 0 -11 -8 -35 -17 -54 -21 -46 -63 -60 -148 -52 -117 11 -147 37 -121
101 20 48 52 61 112 46 38 -10 49 -10 55 1 13 20 12 23 -35 62 -51 41 -102
114 -118 168 l-11 38 -758 0 -757 0 -17 -50 c-25 -75 -81 -140 -156 -179 -35
-19 -66 -35 -68 -37 -2 -1 5 -23 14 -47 16 -41 16 -48 1 -78 -18 -39 -68 -76
-112 -85 -39 -8 -97 17 -119 50 -16 24 -16 28 -1 51 9 13 34 32 56 42 54 25
40 39 -47 47 l-71 7 -7 -41 c-11 -62 -41 -92 -102 -97 -60 -6 -150 11 -175 34
-27 24 -22 61 12 95 27 27 36 30 68 24 72 -13 77 -12 80 10 2 14 -6 27 -24 39
-47 31 -84 77 -117 147 l-32 68 -757 0 c-681 0 -758 -2 -758 -16 0 -33 -53
-124 -95 -163 -25 -23 -66 -51 -92 -63 -27 -13 -49 -23 -51 -24 -2 -1 4 -16
12 -33 28 -53 21 -89 -24 -132 -64 -61 -135 -62 -190 -4 -34 36 -21 71 35 95
67 29 59 46 -27 53 -80 7 -88 5 -88 -25 0 -11 -7 -35 -16 -54 -21 -44 -66 -59
-151 -50 -116 12 -145 37 -119 101 20 48 52 61 112 46 38 -10 49 -10 55 1 14
21 11 24 -33 59 -46 37 -113 134 -123 179 l-7 30 -756 0 -757 0 -18 -49 c-27
-78 -85 -143 -161 -182 -36 -19 -64 -38 -62 -44 24 -54 28 -86 17 -114 -19
-43 -85 -86 -135 -86 -55 0 -106 36 -106 74 0 31 15 48 66 71 48 22 31 36 -52
44 l-71 7 -7 -40 c-9 -61 -42 -93 -103 -98 -60 -6 -150 11 -175 34 -27 24 -22
61 12 95 27 27 36 30 68 24 20 -4 46 -7 57 -9 39 -4 25 31 -38 94 -43 44 -71
82 -87 122 l-24 57 -758 0 c-724 0 -758 -1 -758 -18 0 -34 -51 -120 -95 -161
-25 -23 -66 -51 -92 -63 -27 -13 -49 -23 -51 -24 -2 -1 4 -16 12 -33 28 -52
21 -89 -23 -132 -48 -44 -104 -58 -148 -36 -78 41 -82 95 -8 127 57 24 61 50
8 50 -21 0 -55 3 -75 6 -27 5 -39 3 -42 -7 -2 -8 -9 -33 -15 -56 -17 -61 -52
-77 -148 -69 -98 7 -127 22 -131 64 -4 40 19 79 52 88 13 3 43 0 66 -6 34 -9
45 -9 51 2 15 22 10 32 -32 61 -43 30 -114 131 -124 177 l-7 30 -757 0 -757 0
-19 -57 c-24 -70 -97 -148 -173 -182 -40 -19 -51 -29 -46 -40 35 -83 27 -123
-37 -166 -54 -38 -110 -40 -156 -7 -57 40 -42 91 35 122 31 12 40 24 25 33 -5
2 -40 7 -79 11 l-71 7 -7 -40 c-9 -61 -42 -93 -102 -98 -65 -7 -157 13 -179
37 -22 24 -14 62 21 97 21 21 31 24 62 19 20 -4 46 -7 57 -9 39 -4 25 31 -38
94 -46 46 -70 80 -84 119 l-21 55 -756 0 -757 0 -24 -59 c-30 -73 -91 -137
-166 -175 l-56 -28 13 -33 c24 -57 18 -89 -25 -131 -67 -63 -153 -60 -197 6
-23 35 -9 63 42 85 56 24 59 50 7 50 -21 0 -54 3 -74 6 l-36 6 -19 -58 c-25
-77 -44 -87 -148 -79 -98 7 -130 21 -134 57 -4 37 23 86 52 94 13 3 42 0 65
-6 73 -19 85 18 20 63 -43 30 -114 131 -124 177 l-7 30 -757 0 -757 0 -19 -57
c-24 -70 -98 -149 -172 -184 -38 -17 -51 -28 -46 -39 22 -56 25 -87 12 -115
-17 -36 -69 -72 -115 -81 -68 -13 -147 57 -118 104 6 9 29 26 53 36 23 11 40
24 38 30 -4 11 -123 29 -143 22 -6 -3 -14 -20 -18 -40 -11 -58 -44 -88 -102
-93 -65 -7 -157 13 -179 37 -22 24 -14 62 21 97 26 26 48 27 120 7 14 -4 23 0
27 10 5 12 -13 36 -58 80 -61 60 -104 129 -105 169 0 16 -26 17 -405 17 l-405
0 0 -54z m2348 -67 c59 -25 97 -59 161 -141 60 -78 78 -88 157 -88 92 0 122
-50 112 -188 -9 -127 -77 -226 -197 -286 l-51 -26 15 -30 c34 -65 5 -129 -74
-164 -49 -23 -96 -16 -134 19 -44 42 -34 78 29 106 43 18 56 36 32 44 -7 2
-41 6 -74 10 l-61 6 -12 -44 c-6 -24 -19 -55 -30 -68 -17 -21 -27 -24 -93 -24
-103 1 -145 11 -164 41 -14 20 -14 29 -4 55 24 57 54 66 142 44 18 -5 27 -2
31 10 5 11 -14 35 -58 79 -72 71 -98 119 -117 220 -11 58 -17 70 -40 82 -33
17 -48 43 -48 84 0 35 37 77 73 82 14 2 24 14 30 38 18 73 97 143 180 160 56
12 142 2 195 -21z m2321 0 c67 -29 107 -63 161 -138 56 -78 79 -91 158 -91 92
-1 116 -33 115 -155 0 -146 -68 -257 -192 -315 -44 -20 -51 -27 -45 -45 3 -11
9 -40 11 -65 4 -40 1 -49 -24 -74 -58 -59 -131 -69 -187 -25 -17 13 -26 30
-26 49 0 30 15 47 66 70 48 22 31 36 -52 44 l-70 7 -13 -50 c-19 -74 -38 -86
-130 -85 -99 1 -149 17 -157 51 -8 32 8 67 42 89 22 15 32 16 71 6 82 -22 85
6 8 79 -50 47 -115 152 -115 185 0 36 -23 114 -34 114 -20 0 -55 44 -62 78 -5
26 -1 36 24 62 17 16 40 30 51 30 12 0 21 6 21 15 0 45 67 132 125 163 69 36
174 37 254 1z m2263 20 c79 -17 119 -41 179 -109 128 -146 120 -140 188 -140
34 0 71 -5 83 -11 49 -27 63 -149 28 -262 -26 -84 -86 -152 -169 -192 -43 -22
-58 -34 -54 -45 33 -85 24 -127 -36 -167 -48 -32 -92 -38 -135 -18 -73 35 -73
94 -1 125 42 18 55 33 38 43 -5 3 -38 8 -74 11 l-66 7 -19 -58 c-18 -54 -22
-59 -61 -73 -56 -19 -185 -2 -216 28 -24 25 -17 63 19 99 26 26 48 27 121 7
15 -4 22 -1 25 12 2 12 -20 42 -63 84 -71 72 -105 139 -116 233 -5 40 -11 50
-34 63 -34 17 -49 42 -49 84 0 35 38 80 68 80 13 0 23 12 32 40 16 48 70 115
111 135 62 33 125 40 201 24z m2387 -20 c67 -29 107 -63 161 -138 57 -78 79
-91 160 -91 52 0 61 -3 83 -29 44 -53 44 -183 -2 -285 -24 -54 -89 -117 -158
-153 -45 -23 -53 -31 -47 -48 4 -11 9 -40 11 -65 4 -39 1 -49 -22 -72 -39 -39
-91 -61 -130 -54 -48 9 -85 42 -85 76 0 30 15 47 66 70 48 22 31 36 -52 44
l-72 7 -12 -50 c-18 -74 -36 -86 -135 -85 -45 0 -96 6 -114 13 -55 23 -52 90
5 127 22 15 32 16 71 6 24 -7 49 -10 54 -7 19 12 8 41 -21 59 -68 40 -135 165
-155 289 -3 22 -12 37 -20 37 -21 0 -65 59 -65 87 0 29 50 83 77 83 12 0 22
13 31 41 18 57 49 97 101 127 77 45 181 49 270 11z m2274 17 c72 -17 123 -50
178 -117 103 -124 110 -129 181 -129 81 0 102 -14 118 -81 15 -61 8 -141 -17
-213 -22 -63 -99 -143 -171 -180 l-51 -26 15 -37 c29 -68 -2 -128 -85 -162
-64 -27 -156 20 -149 77 2 21 13 32 48 50 25 12 45 28 45 35 0 12 -118 32
-141 23 -6 -2 -15 -22 -19 -44 -13 -79 -67 -103 -188 -84 -110 17 -136 64 -71
129 26 26 31 26 116 7 50 -11 39 26 -28 91 -34 33 -69 76 -79 95 -22 42 -45
125 -45 162 0 20 -8 32 -30 43 -17 9 -38 31 -47 50 -15 31 -15 35 3 67 12 20
32 37 51 42 24 8 34 19 47 57 32 89 129 153 236 158 14 0 51 -5 83 -13z m2376
-17 c67 -29 107 -64 163 -141 28 -38 62 -74 75 -79 13 -5 50 -9 82 -9 73 0 98
-23 111 -103 25 -153 -46 -291 -187 -364 -45 -23 -53 -31 -47 -48 13 -40 14
-110 2 -125 -22 -27 -72 -57 -104 -64 -41 -9 -97 14 -119 48 -16 24 -16 28 -1
51 9 13 34 32 56 42 54 25 40 39 -46 47 l-72 7 -12 -50 c-18 -75 -36 -86 -139
-85 -134 1 -174 32 -140 108 17 37 61 52 110 37 40 -12 59 -9 59 11 0 5 -26
36 -59 67 -71 68 -94 111 -117 219 -10 49 -22 82 -30 82 -19 0 -64 59 -64 84
0 31 27 66 64 81 22 9 36 25 45 52 20 56 50 92 100 121 77 45 181 49 270 11z
m2257 20 c78 -14 133 -47 191 -116 112 -132 113 -133 185 -133 78 0 102 -15
117 -74 40 -162 -40 -329 -191 -398 -27 -12 -48 -24 -48 -27 0 -3 7 -24 16
-48 15 -39 15 -44 -2 -79 -26 -53 -95 -90 -148 -80 -50 10 -88 47 -84 84 2 21
13 32 48 50 74 37 68 46 -36 57 l-72 7 -7 -42 c-11 -62 -41 -92 -101 -97 -65
-7 -157 13 -179 37 -22 24 -14 62 21 97 22 22 31 24 62 18 97 -18 106 2 32 71
-29 27 -63 68 -77 91 -27 46 -53 132 -53 175 0 20 -8 32 -30 43 -17 9 -38 31
-47 50 -15 31 -15 35 3 67 12 20 32 37 51 42 24 8 34 19 47 57 20 56 86 121
137 137 77 24 89 25 165 11z m-15052 -596 c50 -16 98 -58 206 -181 l46 -52 67
0 c58 0 71 -3 92 -24 47 -47 47 -195 1 -290 -32 -65 -107 -136 -171 -162 -33
-14 -43 -23 -39 -34 35 -80 25 -127 -35 -167 -49 -33 -93 -39 -137 -17 -49 25
-61 45 -48 81 7 20 21 32 52 43 64 22 52 43 -28 52 -77 9 -90 6 -90 -23 0 -37
-30 -87 -61 -99 -32 -14 -147 -8 -193 10 -39 14 -49 43 -32 85 18 43 50 57
102 44 53 -12 61 -11 67 6 4 9 -18 38 -57 77 -71 71 -103 132 -119 226 -10 54
-16 66 -39 78 -55 28 -66 99 -22 139 15 14 34 25 43 25 10 0 28 25 46 62 63
130 186 172 349 121z m2326 0 c62 -25 109 -65 166 -139 30 -41 63 -78 74 -84
10 -5 44 -10 75 -10 31 0 65 -5 76 -10 33 -18 49 -64 49 -144 0 -141 -67 -252
-188 -313 -31 -15 -58 -28 -60 -29 -1 0 5 -17 13 -37 25 -59 20 -86 -25 -128
-67 -64 -152 -61 -196 6 -16 25 -16 27 3 53 11 15 34 31 52 36 42 12 44 46 2
46 -15 0 -48 3 -73 6 l-45 6 -19 -58 c-25 -77 -44 -87 -147 -80 -104 7 -131
21 -135 67 -3 30 2 41 29 63 24 20 39 26 57 21 68 -17 79 -17 86 0 4 12 -11
33 -54 75 -69 66 -106 138 -123 236 -6 35 -16 64 -23 64 -6 0 -23 12 -38 26
-49 49 -27 115 47 143 15 6 27 17 27 25 0 38 56 113 105 142 75 44 182 51 265
17z m2325 -1 c51 -17 101 -62 205 -180 l46 -52 65 0 c40 0 72 -5 85 -15 52
-36 57 -202 9 -301 -31 -63 -107 -135 -170 -160 -33 -14 -43 -23 -39 -34 35
-82 26 -125 -37 -167 -81 -53 -184 -26 -184 48 0 31 5 36 47 57 64 30 55 48
-29 55 -74 7 -83 4 -83 -25 0 -11 -7 -35 -16 -54 -23 -48 -71 -61 -171 -47
-90 13 -119 34 -108 81 12 58 48 73 131 58 36 -6 42 -5 47 13 3 14 -3 25 -21
37 -85 56 -161 196 -162 296 0 20 -8 32 -30 43 -16 8 -37 29 -45 46 -15 28
-15 33 2 67 12 25 28 40 49 46 25 8 35 19 48 57 11 30 34 63 61 88 38 35 61
46 140 64 30 7 104 -3 160 -21z m2260 17 c102 -19 146 -49 236 -163 31 -40 65
-76 74 -80 9 -3 41 -6 71 -6 31 0 64 -5 76 -11 50 -27 65 -173 27 -273 -32
-88 -125 -175 -227 -212 -1 0 5 -17 13 -37 20 -49 19 -79 -6 -111 -25 -31 -88
-66 -121 -66 -30 0 -84 33 -98 61 -10 18 -9 26 7 48 11 14 34 30 52 35 20 6
31 15 31 27 0 15 -8 19 -37 19 -21 0 -54 3 -74 6 l-36 6 -19 -58 c-25 -77 -44
-87 -147 -80 -104 7 -131 21 -135 67 -3 30 2 41 29 63 24 20 39 26 57 21 68
-17 79 -17 86 0 4 12 -11 33 -54 75 -67 65 -105 135 -122 230 -9 47 -17 64
-37 77 -38 24 -50 44 -50 78 0 38 17 61 61 80 25 10 38 23 42 42 11 45 56 102
102 129 35 21 59 28 135 43 3 1 32 -4 64 -10z m2405 -26 c65 -29 85 -46 158
-138 31 -38 61 -73 66 -77 6 -4 41 -8 79 -8 79 0 99 -14 118 -82 28 -106 -19
-261 -102 -331 -30 -26 -115 -77 -136 -83 -1 0 5 -22 13 -50 20 -63 9 -94 -47
-131 -81 -53 -184 -26 -184 48 0 31 5 36 47 57 64 30 55 48 -29 55 -36 4 -69
4 -73 2 -5 -3 -11 -23 -15 -44 -13 -77 -88 -107 -206 -82 -89 19 -113 62 -65
117 18 22 31 27 57 26 19 -2 48 -4 64 -5 24 -2 31 2 33 21 2 12 -1 22 -6 22
-20 0 -102 90 -127 140 -15 29 -33 85 -41 124 -9 39 -21 73 -27 75 -6 2 -25
17 -41 33 -23 24 -27 34 -22 61 7 36 47 77 77 77 10 0 19 7 19 15 0 29 38 91
79 128 76 68 198 81 311 30z m2302 12 c54 -18 119 -71 169 -138 65 -86 81 -97
151 -97 33 0 68 -5 80 -11 30 -16 48 -71 48 -148 0 -136 -69 -248 -188 -308
-31 -15 -58 -28 -60 -29 -1 0 5 -17 13 -37 25 -59 19 -86 -24 -128 -63 -59
-139 -62 -190 -8 -12 13 -21 30 -21 39 0 22 39 57 73 65 17 5 27 14 27 26 0
16 -8 19 -50 21 -111 4 -102 8 -115 -45 -19 -75 -31 -82 -133 -81 -132 1 -178
34 -145 102 18 38 60 54 105 41 45 -13 55 -12 62 7 5 12 -11 34 -53 73 -70 67
-107 135 -123 231 -7 39 -17 70 -24 70 -24 0 -64 52 -64 84 1 40 18 62 64 81
22 10 36 22 36 33 0 34 58 110 103 136 77 45 166 52 259 21z m2348 -12 c63
-28 104 -64 163 -145 50 -68 69 -78 147 -78 52 0 61 -3 83 -30 68 -81 29 -293
-70 -381 -19 -16 -57 -41 -86 -55 -29 -15 -53 -28 -55 -29 -2 -2 3 -24 12 -48
12 -35 13 -53 5 -76 -12 -34 -70 -78 -115 -87 -40 -8 -97 17 -120 51 -16 25
-16 27 3 53 11 14 34 30 51 34 69 18 47 43 -44 52 l-72 7 -6 -44 c-4 -28 -16
-53 -32 -68 -23 -21 -35 -24 -102 -23 -136 1 -188 37 -151 103 22 39 56 52
107 40 24 -5 47 -7 53 -4 19 13 7 41 -27 64 -70 48 -126 146 -145 256 -8 48
-16 66 -30 70 -27 9 -59 54 -59 82 0 30 51 83 79 83 12 0 21 6 21 15 0 25 35
88 66 119 77 77 205 92 324 39z m2304 10 c56 -19 117 -69 167 -136 65 -86 81
-97 151 -97 33 0 68 -5 80 -11 50 -27 65 -173 27 -273 -32 -88 -125 -175 -227
-212 -1 0 5 -17 13 -37 23 -56 19 -85 -18 -122 -46 -46 -104 -62 -154 -44 -21
8 -44 27 -52 41 -21 37 0 74 51 90 37 11 51 35 26 43 -7 2 -41 6 -76 10 -47 4
-63 3 -66 -7 -2 -7 -9 -32 -15 -55 -17 -61 -52 -78 -149 -69 -119 10 -156 40
-125 103 19 41 57 56 103 43 47 -14 57 -13 64 7 5 11 -9 30 -47 64 -67 60
-113 144 -129 237 -8 48 -17 72 -25 72 -27 0 -63 48 -63 82 1 41 17 64 62 82
25 11 37 23 41 43 3 15 19 47 36 70 65 90 197 121 325 76z m-15079 -595 c57
-29 89 -59 152 -140 53 -70 67 -78 132 -78 71 0 99 -14 118 -57 24 -58 14
-193 -20 -258 -30 -61 -97 -124 -166 -160 l-51 -25 15 -30 c27 -52 20 -89 -25
-131 -62 -59 -136 -64 -186 -14 -13 13 -24 33 -24 44 0 26 35 58 71 66 29 7
40 32 17 39 -7 3 -41 7 -75 10 -62 6 -63 5 -69 -22 -11 -50 -27 -83 -48 -97
-42 -30 -207 -13 -241 25 -14 16 -15 24 -5 54 6 20 20 41 30 46 24 13 71 13
105 0 22 -8 27 -7 34 12 6 18 -3 32 -59 87 -72 71 -103 132 -116 231 -6 43
-11 53 -35 66 -33 17 -57 59 -51 91 4 24 55 73 77 73 7 0 19 15 25 34 19 59
65 112 122 140 48 25 61 27 138 24 66 -4 96 -10 135 -30z m2288 18 c59 -22
115 -65 161 -125 80 -107 86 -111 161 -111 60 0 69 -3 95 -28 50 -51 50 -194
-2 -296 -27 -53 -99 -120 -158 -148 -41 -19 -49 -27 -44 -43 3 -11 8 -40 11
-65 5 -40 2 -49 -24 -77 -33 -35 -98 -59 -135 -50 -43 11 -78 46 -78 77 0 32
24 54 73 65 15 4 27 10 27 14 -1 20 -23 29 -87 34 l-71 6 -7 -42 c-5 -26 -18
-52 -37 -70 -29 -29 -31 -30 -111 -24 -133 8 -170 40 -130 109 18 30 23 33 69
33 27 -1 58 -3 69 -5 16 -4 21 1 23 23 2 15 -1 27 -7 27 -5 0 -31 21 -56 46
-51 49 -103 149 -111 210 -9 70 -14 84 -28 84 -8 0 -26 14 -41 32 -21 25 -25
38 -21 62 7 34 50 76 79 76 9 0 17 7 17 15 0 49 77 141 140 168 44 19 172 21
223 3z m2362 -18 c51 -26 120 -93 165 -160 30 -45 56 -58 118 -58 98 0 122
-25 130 -132 10 -143 -60 -269 -188 -337 -34 -19 -59 -38 -56 -44 36 -86 31
-117 -28 -162 -45 -34 -102 -43 -145 -21 -69 36 -64 105 9 127 38 12 54 35 28
43 -7 3 -41 7 -75 10 -62 6 -63 5 -68 -22 -12 -54 -35 -93 -62 -103 -32 -13
-153 -6 -200 11 -40 14 -48 38 -29 83 17 42 41 51 111 42 44 -5 53 -3 59 11 5
12 -8 30 -49 66 -30 28 -67 70 -81 94 -28 47 -54 132 -54 176 0 19 -9 31 -35
47 -46 27 -59 61 -41 105 10 24 25 38 49 47 28 10 39 22 52 56 24 61 61 102
120 130 70 33 195 29 270 -9z m2288 18 c59 -21 111 -62 159 -124 84 -109 88
-112 163 -112 60 0 69 -3 95 -28 49 -50 49 -197 -2 -295 -27 -55 -95 -118
-157 -147 -44 -20 -51 -27 -46 -45 4 -11 9 -41 12 -67 5 -44 3 -50 -27 -78
-37 -34 -97 -55 -132 -47 -43 11 -78 46 -78 77 0 32 24 54 73 65 15 4 27 10
27 14 -1 20 -23 29 -87 34 l-71 7 -7 -42 c-5 -26 -18 -53 -35 -70 -24 -24 -37
-28 -84 -28 -153 0 -214 49 -154 125 19 25 26 27 72 22 28 -2 58 -6 66 -8 10
-3 16 5 18 21 2 19 -4 30 -27 43 -72 43 -136 160 -156 290 -4 22 -11 37 -20
37 -7 0 -25 14 -40 32 -21 25 -25 38 -21 62 7 34 50 76 79 76 9 0 17 7 17 15
0 52 82 147 146 170 50 18 168 18 217 1z m2354 -14 c59 -31 107 -75 154 -142
46 -66 68 -77 157 -82 47 -3 66 -9 77 -24 43 -56 44 -185 2 -277 -34 -74 -86
-129 -155 -163 -31 -16 -59 -30 -61 -31 -2 -1 4 -21 13 -44 28 -69 7 -114 -71
-153 -44 -22 -84 -20 -124 7 -59 39 -48 97 22 118 27 9 39 17 37 28 -2 12 -21
18 -73 23 -39 4 -73 4 -76 0 -3 -4 -12 -29 -19 -55 -18 -66 -49 -82 -145 -74
-91 7 -134 23 -141 52 -7 27 18 80 41 89 24 9 70 7 99 -4 21 -8 27 -6 36 11
10 17 4 26 -45 71 -31 28 -67 70 -81 94 -28 47 -54 132 -54 176 0 19 -9 31
-35 47 -46 27 -59 61 -41 105 10 24 25 38 49 47 27 9 38 21 47 50 19 56 67
108 124 136 44 21 62 24 136 20 62 -2 96 -9 127 -25z m2306 8 c58 -22 136 -90
189 -167 37 -55 54 -63 127 -63 48 0 65 -5 86 -22 51 -45 53 -204 4 -301 -27
-53 -99 -119 -160 -147 -42 -20 -49 -27 -44 -45 4 -11 9 -40 12 -65 4 -40 2
-49 -23 -74 -32 -32 -82 -56 -115 -56 -29 0 -96 39 -102 59 -8 32 12 62 53 78
39 16 53 40 28 48 -7 2 -41 6 -75 10 l-61 6 -7 -43 c-5 -27 -18 -53 -37 -71
-29 -29 -31 -30 -112 -25 -105 7 -140 22 -144 64 -5 47 30 84 78 84 21 0 50
-4 64 -10 21 -8 26 -6 32 12 5 17 -4 30 -44 67 -81 74 -118 145 -137 269 -4
25 -12 42 -20 42 -7 0 -25 14 -40 32 -21 25 -25 38 -21 62 7 34 50 76 79 76 9
0 17 7 17 15 0 25 35 87 66 119 67 68 197 87 307 46z m2297 10 c60 -17 127
-66 177 -131 26 -34 55 -71 64 -83 14 -17 32 -22 98 -26 64 -5 84 -11 96 -26
46 -60 44 -191 -5 -291 -34 -68 -90 -123 -160 -156 -25 -12 -47 -23 -49 -24
-2 -1 4 -21 13 -43 18 -45 13 -84 -13 -114 -23 -26 -86 -56 -119 -56 -42 0
-96 40 -100 73 -4 36 11 54 59 69 38 11 52 35 27 42 -7 3 -43 7 -79 10 l-66 6
-7 -41 c-4 -26 -17 -52 -37 -71 -30 -30 -32 -31 -107 -25 -97 7 -140 22 -148
52 -7 27 18 80 41 89 24 9 70 7 100 -4 22 -8 27 -7 34 12 7 18 -1 30 -49 74
-31 29 -68 74 -82 101 -23 42 -31 69 -53 173 -3 14 -20 34 -37 45 -65 40 -59
113 11 143 30 13 42 25 50 52 16 52 68 110 125 136 56 26 151 32 216 14z
m-15090 -589 c66 -25 120 -70 177 -144 62 -83 68 -87 134 -87 112 0 134 -28
134 -164 0 -74 -5 -101 -24 -144 -28 -63 -110 -141 -175 -168 -50 -21 -53 -26
-31 -64 22 -38 18 -75 -11 -110 -52 -61 -122 -77 -182 -40 -62 38 -56 89 13
116 41 15 57 36 38 47 -5 3 -39 6 -77 8 l-69 4 -12 -48 c-19 -75 -31 -82 -138
-82 -73 0 -99 4 -120 18 -38 25 -43 44 -22 84 22 40 51 49 112 36 39 -9 45 -8
54 10 10 17 6 24 -22 46 -85 66 -133 147 -152 256 -9 54 -16 69 -33 75 -29 11
-54 48 -54 80 0 35 25 68 66 85 19 8 34 21 34 30 0 30 40 94 75 121 74 56 191
71 285 35z m2358 -16 c51 -28 79 -55 170 -163 43 -52 43 -52 102 -52 118 0
146 -35 137 -180 -7 -142 -69 -236 -190 -294 l-57 -27 15 -29 c32 -61 14 -118
-48 -154 -51 -30 -85 -33 -134 -9 -69 32 -66 90 8 119 26 11 39 22 39 35 0 16
-8 19 -52 19 -29 0 -63 3 -75 6 -18 5 -23 1 -28 -22 -23 -103 -46 -119 -160
-111 -100 6 -135 23 -135 66 0 16 10 41 22 56 19 24 26 27 67 22 25 -2 53 -8
63 -12 11 -4 18 0 23 15 6 18 -3 31 -49 71 -66 59 -112 145 -127 239 -10 58
-14 67 -43 80 -66 32 -60 112 11 144 33 16 43 26 48 54 7 38 64 106 109 129
54 28 79 33 156 30 61 -3 86 -9 128 -32z m2296 15 c60 -23 147 -100 191 -170
32 -50 51 -60 120 -60 35 0 68 -6 85 -16 53 -32 66 -153 28 -265 -26 -78 -106
-164 -181 -195 -50 -20 -50 -20 -26 -81 17 -43 4 -78 -43 -116 -51 -41 -111
-47 -158 -15 -26 18 -36 32 -38 56 -3 31 0 34 47 55 28 11 51 23 51 26 -1 21
-24 29 -85 32 l-69 4 -7 -30 c-21 -93 -45 -109 -159 -102 -122 7 -160 39 -126
105 19 37 44 46 99 38 56 -9 61 -8 69 14 5 14 -3 24 -33 45 -71 47 -123 147
-153 295 -3 14 -15 30 -28 35 -12 6 -30 24 -40 41 -26 44 -9 88 42 110 30 13
42 27 55 61 29 74 78 120 155 144 50 15 148 9 204 -11z m2354 -15 c51 -28 79
-55 170 -163 43 -52 43 -52 103 -52 109 0 139 -34 139 -161 0 -134 -67 -243
-190 -308 l-59 -32 15 -34 c20 -50 17 -79 -12 -115 -52 -61 -120 -76 -180 -40
-60 38 -53 88 17 116 26 11 39 22 39 35 0 16 -8 19 -52 19 -29 0 -63 3 -75 6
-18 5 -23 -1 -37 -50 -21 -70 -43 -86 -121 -86 -126 1 -184 32 -164 89 17 48
43 64 91 58 24 -2 50 -8 60 -12 11 -4 18 0 23 15 6 18 -3 31 -49 71 -65 58
-110 143 -128 237 -10 53 -16 66 -40 78 -71 37 -62 125 16 158 24 10 35 23 44
52 14 48 83 118 137 139 27 10 66 14 120 12 66 -3 90 -8 133 -32z m2283 20
c69 -25 117 -63 181 -147 62 -82 66 -85 160 -91 38 -2 65 -10 78 -22 44 -40
50 -163 12 -269 -30 -84 -89 -139 -220 -203 -2 0 4 -23 13 -50 21 -60 12 -89
-41 -130 -75 -57 -194 -27 -194 49 0 25 7 32 50 51 27 12 50 24 50 27 0 19
-24 28 -87 32 -69 5 -73 4 -73 -16 0 -11 -9 -40 -19 -63 -23 -50 -53 -59 -163
-50 -109 9 -138 39 -103 107 19 36 53 46 111 33 48 -11 54 -9 54 21 -1 13 -16
32 -41 49 -72 50 -122 147 -144 280 -3 22 -12 37 -20 37 -17 0 -65 56 -65 76
0 33 31 73 64 84 26 8 36 18 41 40 8 36 56 104 90 126 68 45 185 57 266 29z
m2335 -6 c59 -22 116 -72 202 -177 l43 -52 60 0 c109 0 139 -34 139 -161 0
-134 -67 -243 -190 -308 l-60 -32 15 -36 c21 -51 19 -77 -11 -113 -52 -61
-120 -76 -180 -40 -18 12 -36 30 -39 41 -9 29 18 65 60 79 24 8 35 18 35 31 0
16 -7 19 -52 19 -29 0 -63 3 -75 6 -18 5 -23 -1 -37 -50 -21 -70 -43 -86 -121
-86 -126 1 -184 32 -164 89 17 48 43 64 91 58 24 -2 50 -8 60 -12 11 -4 18 0
23 15 6 18 -3 31 -47 70 -66 59 -112 142 -129 233 -11 59 -17 70 -41 83 -71
37 -62 125 16 158 24 10 35 23 44 53 15 50 77 112 134 135 61 24 155 23 224
-3z m2311 6 c63 -19 119 -63 178 -140 68 -89 77 -95 151 -95 51 0 68 -4 89
-22 47 -41 55 -151 20 -262 -15 -47 -31 -72 -75 -115 -30 -31 -75 -65 -100
-75 -25 -11 -47 -21 -49 -22 -2 -2 5 -23 14 -48 15 -39 16 -50 5 -76 -18 -44
-72 -82 -123 -87 -48 -4 -81 10 -110 49 -18 25 -19 29 -5 50 9 13 34 30 56 37
31 11 38 17 35 32 -4 15 -15 19 -57 19 -28 0 -61 3 -73 6 -19 5 -23 2 -23 -15
0 -43 -31 -99 -61 -111 -40 -17 -181 -7 -214 14 -34 22 -33 68 1 103 22 22 31
25 73 20 25 -3 53 -7 61 -9 7 -2 16 5 18 15 2 11 -17 38 -55 75 -69 67 -109
142 -125 234 -8 49 -15 66 -31 74 -11 5 -29 21 -40 36 -31 41 -14 87 39 112
33 16 44 27 53 58 20 66 84 125 161 149 42 13 134 10 187 -6z m2339 -6 c59
-22 116 -72 202 -177 l43 -52 60 0 c109 0 139 -34 139 -161 0 -134 -67 -243
-190 -308 -33 -18 -60 -35 -60 -39 1 -4 7 -18 15 -32 22 -38 18 -75 -11 -110
-52 -61 -122 -77 -181 -40 -62 38 -51 96 23 120 34 11 46 37 22 45 -7 2 -41 6
-75 8 l-62 5 -16 -54 c-20 -69 -42 -84 -125 -84 -84 0 -136 15 -156 45 -14 21
-14 27 0 52 23 46 41 56 89 50 23 -2 49 -8 59 -12 11 -4 18 0 23 14 4 15 -9
35 -62 88 -73 73 -105 136 -119 236 -5 38 -11 50 -29 57 -13 5 -30 19 -39 32
-34 48 -12 107 49 132 23 10 35 23 39 43 13 59 77 125 144 149 57 20 153 17
218 -7z m-15128 -574 c67 -20 138 -77 195 -158 50 -70 69 -82 130 -78 55 3
102 -15 118 -46 9 -17 14 -59 14 -122 0 -91 -2 -100 -35 -160 -35 -66 -108
-131 -178 -160 -30 -13 -30 -13 -16 -47 28 -66 10 -116 -56 -153 -52 -29 -119
-25 -156 10 -43 41 -25 86 44 110 32 11 43 36 20 44 -7 2 -41 5 -75 7 l-62 4
-11 -45 c-19 -75 -41 -91 -125 -91 -93 0 -128 7 -155 32 -16 15 -20 27 -15 47
15 61 73 87 139 61 21 -8 27 -6 36 11 10 17 4 26 -45 71 -74 67 -111 134 -127
227 -10 60 -16 75 -34 81 -31 12 -54 49 -54 86 0 33 17 53 64 75 18 9 33 25
37 43 34 126 194 196 347 151z m2359 -15 c51 -22 102 -69 186 -173 37 -46 39
-47 95 -47 116 0 160 -55 148 -185 -13 -132 -73 -224 -186 -284 -47 -25 -60
-37 -55 -49 28 -72 17 -123 -37 -162 -48 -35 -109 -40 -148 -13 -33 23 -40 33
-40 66 0 24 7 31 45 48 49 22 57 30 47 46 -9 14 -152 22 -152 8 0 -28 -23 -88
-41 -106 -36 -36 -226 -20 -252 22 -13 21 -2 64 24 90 20 20 43 22 124 7 40
-7 27 31 -33 89 -71 69 -94 112 -117 216 -14 65 -21 80 -46 94 -66 39 -58 129
14 152 27 9 37 20 47 51 21 65 88 128 159 151 45 15 162 4 218 -21z m2290 15
c68 -20 130 -70 193 -154 55 -76 64 -80 152 -84 31 -2 64 -10 74 -18 57 -47
58 -206 0 -316 -23 -46 -90 -108 -152 -140 l-52 -27 14 -34 c18 -45 18 -68 -3
-102 -26 -44 -86 -73 -140 -67 -108 12 -125 103 -25 138 18 6 32 17 32 25 0
15 -21 21 -98 27 -50 4 -53 3 -58 -22 -20 -92 -43 -111 -139 -111 -149 0 -202
45 -139 119 28 33 68 40 118 21 22 -8 27 -6 37 12 10 19 9 24 -12 37 -88 56
-168 201 -169 304 0 19 -7 30 -22 36 -35 13 -61 48 -61 81 0 35 18 59 60 76
22 10 35 24 44 51 42 129 193 193 346 148z m2340 -6 c60 -22 123 -78 206 -182
37 -46 39 -47 93 -47 71 0 121 -21 135 -57 18 -46 15 -172 -6 -231 -25 -70
-90 -141 -165 -181 -54 -29 -61 -36 -55 -55 18 -54 17 -101 -4 -128 -44 -55
-126 -74 -181 -41 -59 35 -56 96 7 117 78 26 61 52 -39 58 l-67 4 -6 -38 c-4
-21 -19 -53 -33 -69 l-26 -31 -91 4 c-110 5 -145 21 -145 69 0 19 9 39 26 56
22 21 32 25 67 20 23 -2 49 -8 59 -12 11 -4 18 0 23 14 5 16 -7 33 -53 78 -71
69 -94 112 -117 215 -13 62 -22 80 -43 94 -54 35 -63 64 -37 114 9 17 28 33
48 39 25 9 36 20 46 49 16 45 54 97 87 118 72 48 179 57 271 23z m2338 -4 c63
-29 109 -70 164 -144 28 -38 58 -72 67 -75 9 -3 37 -6 64 -6 95 0 128 -31 137
-127 7 -72 -17 -172 -55 -230 -30 -46 -104 -106 -157 -129 -19 -8 -35 -16 -35
-18 0 -2 7 -20 16 -41 19 -46 11 -84 -24 -117 -61 -57 -130 -65 -181 -22 -51
43 -36 89 37 115 30 10 42 32 25 42 -5 3 -39 7 -77 8 l-70 4 -12 -50 c-18 -70
-40 -85 -128 -85 -125 0 -176 28 -162 86 15 56 74 79 141 54 22 -8 27 -7 35
13 6 17 4 25 -13 37 -81 54 -152 173 -163 271 -6 54 -9 61 -39 75 -31 14 -55
49 -55 79 0 21 47 72 73 79 15 3 27 18 36 43 27 73 87 129 162 152 50 15 167
7 214 -14z m2332 -5 c51 -22 102 -69 186 -173 37 -46 40 -47 93 -47 71 0 121
-21 135 -57 18 -45 15 -162 -6 -225 -25 -77 -87 -147 -169 -189 l-64 -33 14
-28 c8 -15 14 -42 14 -61 0 -85 -118 -145 -200 -102 -64 33 -59 93 10 121 39
16 53 40 28 49 -7 2 -41 5 -75 7 l-62 4 -6 -38 c-4 -21 -19 -53 -33 -69 l-26
-31 -91 4 c-110 5 -145 21 -145 69 0 19 9 39 26 56 22 21 32 25 67 20 23 -2
49 -8 59 -12 11 -4 18 0 23 14 5 16 -7 33 -55 80 -67 66 -102 132 -121 229 -9
46 -17 66 -33 74 -77 39 -72 131 9 158 19 6 35 18 35 26 0 22 29 75 59 107 27
29 66 54 111 68 44 15 161 4 217 -21z m2329 -3 c58 -30 98 -67 155 -143 49
-66 60 -72 143 -77 45 -3 73 -11 87 -23 43 -39 49 -163 14 -266 -22 -64 -91
-138 -164 -177 -34 -18 -61 -34 -61 -35 0 -2 7 -20 16 -41 9 -21 13 -49 9 -65
-6 -28 -44 -69 -82 -89 -55 -28 -148 0 -160 48 -8 33 6 53 55 76 39 18 53 37
34 49 -4 2 -39 6 -76 7 l-69 2 -14 -49 c-21 -72 -40 -84 -132 -83 -122 0 -171
27 -157 83 15 58 73 82 141 56 22 -8 27 -7 34 12 7 19 2 27 -29 49 -49 36 -98
100 -120 157 -17 44 -36 138 -32 154 1 4 -14 14 -32 23 -72 34 -70 119 4 151
27 12 40 26 50 53 26 71 93 134 162 152 62 16 169 4 224 -24z m-15145 -567
c78 -29 123 -65 184 -147 31 -40 67 -78 79 -83 13 -4 48 -8 79 -8 34 0 63 -5
73 -13 71 -58 55 -252 -29 -361 -26 -33 -128 -106 -168 -120 -4 -2 -1 -24 8
-49 22 -61 7 -100 -52 -134 -57 -34 -114 -33 -154 1 -51 43 -36 89 38 115 17
6 30 16 28 22 -4 14 -72 29 -116 25 -31 -3 -35 -7 -47 -49 -21 -71 -41 -83
-131 -81 -123 2 -174 30 -157 85 17 58 62 78 131 58 27 -8 35 -6 42 7 8 13 -2
28 -48 72 -78 75 -130 183 -131 273 0 15 -4 27 -9 27 -5 0 -23 12 -40 26 -42
35 -44 92 -5 123 15 12 33 21 40 21 8 0 25 24 38 53 12 28 38 67 56 85 70 67
193 90 291 52z m2364 -14 c36 -18 72 -47 103 -84 26 -30 66 -76 90 -100 39
-42 45 -44 82 -39 110 14 145 -30 138 -174 -7 -142 -67 -234 -192 -296 l-54
-26 14 -33 c18 -43 18 -84 -1 -111 -42 -61 -147 -83 -198 -43 -53 42 -44 87
23 114 54 22 52 42 -6 50 -98 13 -101 12 -118 -47 -22 -75 -56 -90 -176 -77
-80 9 -110 28 -110 70 0 15 9 39 21 54 22 28 51 33 109 16 25 -7 36 -7 42 3
14 22 9 34 -24 57 -71 48 -130 148 -149 253 -9 49 -17 68 -30 72 -28 9 -59 55
-59 87 0 34 39 78 70 78 11 0 23 8 26 18 29 92 84 152 164 177 68 22 167 14
235 -19z m2271 19 c76 -22 136 -68 199 -151 31 -41 67 -79 79 -84 13 -4 49 -8
80 -8 92 1 122 -46 114 -176 -8 -129 -75 -231 -191 -291 -31 -17 -55 -34 -53
-40 37 -86 29 -126 -36 -168 -70 -45 -170 -29 -184 30 -9 35 4 54 54 78 23 11
41 24 39 30 -4 12 -81 26 -121 23 -25 -3 -31 -9 -43 -50 -19 -67 -45 -81 -140
-80 -136 3 -186 51 -128 121 29 33 55 38 113 22 26 -8 34 -7 42 8 7 15 -1 27
-45 64 -65 57 -120 159 -131 243 -6 48 -11 59 -35 73 -16 9 -36 31 -44 49 -20
41 -4 80 43 103 23 12 41 35 63 78 58 116 188 167 325 126z m2315 4 c98 -32
142 -65 214 -163 51 -69 86 -91 137 -84 89 14 128 -32 128 -149 0 -143 -60
-246 -181 -312 l-65 -36 14 -37 c28 -72 -6 -136 -88 -166 -38 -14 -109 7 -134
41 -19 26 -19 30 -5 55 8 15 30 32 49 38 19 6 36 18 38 27 2 12 -11 17 -62 22
-36 4 -72 5 -79 2 -8 -3 -17 -23 -20 -44 -7 -45 -39 -78 -80 -85 -49 -9 -166
8 -187 27 -26 24 -25 66 2 100 19 25 26 27 67 22 25 -3 53 -8 63 -12 11 -4 18
0 23 15 5 16 1 26 -17 38 -21 15 -64 58 -96 96 -22 28 -52 107 -64 172 -9 45
-18 66 -30 70 -27 8 -58 54 -58 86 0 34 39 78 70 78 11 0 23 8 26 18 17 54 40
94 69 122 60 58 184 85 266 59z m2346 -8 c77 -26 117 -58 185 -144 33 -43 70
-82 83 -87 12 -5 48 -8 79 -8 67 1 91 -16 107 -76 15 -54 5 -164 -20 -220 -27
-63 -103 -141 -167 -172 -30 -15 -54 -28 -54 -29 0 -1 7 -19 16 -40 9 -21 13
-49 9 -65 -6 -28 -44 -69 -82 -89 -51 -26 -145 -3 -158 40 -13 40 3 66 50 85
25 9 44 22 42 28 -4 14 -47 23 -108 25 -46 1 -46 1 -52 -36 -14 -82 -59 -106
-176 -93 -112 12 -141 43 -106 110 19 36 53 46 111 33 75 -17 74 8 -5 85 -65
64 -108 143 -117 218 -8 61 -18 81 -44 89 -21 7 -50 53 -50 79 0 22 48 74 72
78 13 2 26 17 37 43 24 60 50 94 92 120 74 47 168 57 256 26z m2311 5 c71 -19
152 -82 203 -157 46 -68 80 -88 149 -87 65 1 86 -8 104 -46 21 -44 21 -156 1
-224 -22 -74 -86 -148 -166 -191 l-65 -36 15 -38 c21 -57 7 -102 -46 -140 -67
-48 -156 -35 -185 28 -15 33 10 69 57 85 56 19 44 37 -30 45 -35 4 -71 5 -78
2 -8 -3 -17 -23 -20 -44 -4 -23 -17 -49 -32 -63 -22 -21 -34 -24 -102 -22
-130 3 -176 32 -148 98 19 46 39 57 88 51 24 -3 50 -9 59 -12 11 -4 18 0 23
15 5 16 1 26 -17 38 -82 55 -142 155 -161 268 -8 46 -16 65 -29 70 -27 8 -58
54 -58 86 0 33 39 78 68 78 13 0 25 16 40 53 29 69 77 115 144 138 64 22 115
23 186 5z m2373 -18 c62 -30 95 -59 162 -146 50 -66 83 -86 132 -79 45 6 93
-11 113 -41 25 -38 23 -169 -3 -241 -26 -71 -100 -152 -171 -187 -30 -14 -54
-28 -54 -29 0 -1 6 -21 14 -43 17 -47 12 -78 -18 -110 -46 -52 -119 -67 -177
-36 -63 32 -57 87 12 118 65 28 53 45 -38 53 l-70 6 -7 -39 c-10 -55 -30 -82
-70 -92 -45 -13 -169 1 -201 22 -33 22 -33 64 0 100 26 28 57 33 112 17 28 -8
33 -7 38 10 5 14 -7 32 -49 70 -64 59 -109 142 -127 237 -10 52 -16 65 -38 77
-72 37 -59 136 21 155 14 4 27 20 37 50 22 61 87 125 148 144 68 22 166 15
234 -16z m2267 20 c75 -18 143 -68 202 -148 63 -84 87 -99 163 -98 62 1 80 -9
104 -55 23 -45 14 -186 -16 -251 -29 -62 -102 -134 -168 -165 l-51 -23 16 -40
c23 -57 8 -105 -43 -140 -57 -39 -123 -39 -167 1 -29 26 -32 32 -23 57 7 20
24 35 53 49 23 11 42 25 42 31 0 13 -119 30 -144 21 -8 -3 -17 -23 -21 -45 -3
-23 -17 -50 -31 -63 -21 -20 -34 -23 -101 -21 -129 2 -173 30 -151 93 16 47
42 63 91 56 23 -3 50 -9 59 -12 27 -10 31 36 5 54 -81 54 -141 154 -160 267
-8 46 -16 65 -29 70 -27 8 -58 54 -58 86 0 33 39 78 68 78 13 0 25 16 40 53
51 123 178 180 320 145z m-15037 -610 c58 -30 138 -111 169 -168 16 -30 49
-43 119 -46 54 -3 69 -7 90 -29 25 -24 26 -31 25 -128 0 -83 -4 -111 -21 -147
-34 -70 -87 -124 -156 -161 l-64 -33 13 -33 c31 -73 8 -125 -71 -163 -53 -26
-91 -21 -135 17 -50 42 -34 89 39 114 48 17 32 33 -43 43 -73 10 -86 4 -86
-41 0 -13 -13 -37 -29 -55 -29 -33 -30 -33 -110 -31 -90 3 -146 21 -156 52 -8
25 18 77 47 92 20 11 75 8 110 -6 11 -4 17 -1 20 12 3 12 -16 37 -53 73 -75
74 -128 182 -129 270 -1 17 -11 31 -33 45 -68 43 -65 112 7 150 28 15 42 31
51 59 48 140 243 196 396 114z m2314 8 c36 -18 73 -48 107 -88 29 -33 67 -76
84 -96 29 -33 36 -36 90 -38 33 0 69 -4 82 -8 39 -13 57 -62 56 -153 0 -73 -4
-90 -37 -155 -37 -76 -88 -125 -170 -164 -31 -15 -37 -22 -31 -39 3 -11 9 -39
11 -63 4 -38 1 -48 -23 -73 -15 -16 -47 -36 -70 -45 -42 -16 -45 -16 -91 7
-49 24 -59 42 -49 84 4 16 20 29 51 41 72 27 62 39 -40 49 l-70 7 -12 -44 c-7
-25 -21 -55 -32 -69 -18 -22 -25 -24 -105 -22 -121 3 -167 29 -152 87 3 14 16
36 27 47 21 21 24 22 124 7 40 -6 28 31 -27 81 -77 70 -103 125 -132 271 -3
14 -19 32 -36 42 -34 19 -53 58 -44 93 7 28 42 62 68 67 12 2 25 19 35 47 22
60 90 126 149 145 70 23 169 15 237 -18z m2316 3 c70 -35 107 -68 156 -136 25
-35 55 -69 66 -75 12 -6 50 -13 85 -14 100 -5 128 -47 120 -180 -9 -133 -76
-233 -198 -294 -25 -12 -46 -23 -47 -24 -2 -2 4 -21 13 -44 10 -25 14 -51 10
-68 -10 -37 -60 -82 -108 -94 -75 -21 -163 46 -131 99 5 9 28 25 51 36 23 11
41 24 39 30 -4 12 -119 30 -141 22 -9 -4 -16 -17 -16 -30 0 -36 -41 -89 -75
-99 -33 -9 -122 -2 -173 14 -57 17 -65 73 -17 118 20 19 32 22 68 17 23 -3 50
-9 59 -12 11 -4 18 0 20 12 3 12 -16 37 -53 73 -67 66 -104 134 -121 226 -11
58 -17 70 -45 88 -38 25 -53 53 -46 89 6 29 46 67 69 67 8 0 25 24 38 53 33
75 85 122 166 148 45 15 164 3 211 -22z m2334 -4 c53 -26 137 -107 172 -165
21 -37 76 -64 113 -57 15 4 44 2 64 -4 52 -14 70 -54 70 -154 0 -69 -5 -90
-30 -145 -36 -76 -87 -129 -161 -167 -45 -23 -53 -31 -47 -48 3 -11 9 -39 11
-63 6 -52 -18 -84 -84 -114 -76 -34 -158 5 -151 73 3 33 14 43 75 66 39 14 11
31 -65 38 -66 7 -72 6 -72 -11 0 -11 -9 -38 -19 -60 -26 -56 -62 -68 -166 -55
-109 13 -135 43 -100 111 19 36 55 47 109 32 74 -19 76 12 6 75 -75 67 -113
143 -134 263 -4 25 -15 40 -36 52 -71 40 -57 139 22 158 14 4 26 19 35 46 21
62 75 120 136 144 72 28 177 22 252 -15z m2271 20 c69 -20 132 -65 179 -126
88 -114 85 -112 159 -115 41 -1 76 -8 91 -18 58 -38 59 -202 1 -314 -24 -47
-92 -110 -151 -139 -27 -14 -51 -26 -53 -28 -1 -1 5 -19 13 -40 10 -22 14 -49
10 -66 -9 -40 -58 -86 -106 -99 -76 -21 -164 46 -132 99 8 14 53 42 88 55 26
9 -16 26 -81 32 l-71 7 -7 -41 c-3 -23 -17 -54 -30 -69 -23 -26 -29 -28 -100
-26 -124 2 -175 30 -160 87 3 13 16 34 29 46 24 23 57 24 121 5 16 -5 23 -2
27 14 4 15 -6 29 -40 57 -76 63 -143 191 -143 275 0 19 -10 33 -35 50 -43 30
-60 66 -46 101 11 29 47 58 71 58 9 0 22 19 32 48 45 126 189 190 334 147z
m2367 -13 c56 -25 111 -74 162 -146 46 -64 82 -85 145 -84 25 1 55 -2 68 -6
69 -22 77 -204 14 -320 -31 -57 -100 -121 -160 -148 -38 -17 -43 -23 -37 -41
4 -12 10 -41 12 -65 4 -38 1 -48 -23 -73 -15 -16 -46 -36 -68 -44 -35 -14 -47
-14 -80 -3 -22 7 -48 25 -59 39 -17 24 -18 30 -6 55 9 19 28 34 56 44 58 21
43 37 -44 45 l-71 7 -7 -33 c-20 -94 -58 -115 -180 -100 -85 10 -115 29 -115
71 0 15 11 39 26 55 26 29 25 28 129 13 40 -6 27 31 -29 83 -65 59 -111 145
-127 235 -9 49 -15 64 -34 72 -38 17 -58 56 -51 96 7 34 41 66 71 66 9 0 18 8
21 18 30 93 76 145 156 174 65 23 166 19 231 -10z m2294 9 c77 -26 117 -57
188 -148 36 -46 73 -84 83 -84 9 -1 44 -3 77 -4 49 -3 63 -7 81 -29 44 -51 40
-205 -7 -299 -27 -51 -93 -114 -154 -144 -27 -14 -51 -26 -53 -28 -1 -1 4 -20
12 -42 26 -73 -4 -126 -89 -159 -42 -16 -45 -16 -89 6 -76 36 -76 97 -1 126
25 9 44 22 42 28 -4 12 -62 25 -119 25 -35 1 -37 -1 -43 -39 -9 -50 -36 -86
-74 -93 -16 -4 -64 -2 -106 2 -91 11 -120 30 -111 75 13 64 66 91 133 65 23
-8 30 -7 41 8 11 16 7 23 -37 60 -80 70 -141 188 -141 274 0 20 -9 33 -34 48
-70 43 -68 118 4 153 24 13 41 32 56 65 33 74 85 120 164 144 44 13 123 9 177
-10z"/>
<path d="M2229 4296 c-9 -20 -9 -29 1 -41 28 -34 87 5 64 43 -18 28 -52 27
-65 -2z"/>
<path d="M1961 4286 c-22 -26 39 -53 84 -36 27 10 27 11 10 30 -21 23 -77 27
-94 6z"/>
<path d="M2182 3745 c-11 -12 -10 -15 3 -15 8 0 15 7 15 15 0 18 -2 18 -18 0z"/>
<path d="M2496 3742 c-4 -12 -25 -31 -47 -42 -21 -11 -39 -23 -39 -25 0 -15
63 -2 85 18 22 18 25 26 17 47 l-9 25 -7 -23z"/>
<path d="M2055 3740 c3 -5 23 -10 43 -9 33 1 34 2 12 9 -36 12 -62 12 -55 0z"/>
<path d="M4556 4301 c-34 -38 26 -85 62 -49 16 16 15 33 -4 52 -21 21 -37 20
-58 -3z"/>
<path d="M4281 4286 c-26 -31 72 -58 102 -27 10 10 8 15 -7 27 -25 18 -80 18
-95 0z"/>
<path d="M4508 3748 c-15 -15 -16 -18 -3 -18 9 0 18 7 22 15 8 23 0 24 -19 3z"/>
<path d="M4820 3753 c0 -22 -43 -63 -66 -63 -8 0 -14 -4 -14 -10 0 -16 39 -12
71 7 30 18 37 45 19 73 -8 12 -10 11 -10 -7z"/>
<path d="M4375 3740 c3 -5 25 -10 48 -9 36 1 38 2 17 9 -36 12 -72 12 -65 0z"/>
<path d="M6880 4305 c-26 -32 13 -81 48 -59 34 22 22 74 -18 74 -10 0 -23 -7
-30 -15z"/>
<path d="M6611 4291 c-39 -25 34 -60 85 -40 26 9 26 10 9 29 -19 21 -69 27
-94 11z"/>
<path d="M6830 3745 c-8 -9 -8 -15 -2 -15 12 0 26 19 19 26 -2 2 -10 -2 -17
-11z"/>
<path d="M6705 3740 c3 -5 23 -10 43 -9 33 1 34 2 12 9 -36 12 -62 12 -55 0z"/>
<path d="M7144 3737 c-3 -10 -25 -28 -48 -40 -37 -19 -39 -22 -17 -25 46 -7
99 38 81 68 -7 12 -10 11 -16 -3z"/>
<path d="M9206 4304 c-19 -18 -19 -20 -6 -45 6 -11 21 -19 35 -19 20 0 45 24
45 44 0 10 -32 36 -45 36 -7 0 -21 -7 -29 -16z"/>
<path d="M8931 4286 c-26 -31 72 -58 102 -27 10 10 8 15 -7 27 -25 18 -80 18
-95 0z"/>
<path d="M9158 3748 c-15 -15 -16 -18 -3 -18 9 0 18 7 22 15 8 23 0 24 -19 3z"/>
<path d="M9470 3753 c0 -22 -43 -63 -66 -63 -8 0 -14 -4 -14 -10 0 -18 46 -11
74 11 27 21 32 44 16 69 -8 12 -10 11 -10 -7z"/>
<path d="M9025 3740 c3 -5 23 -10 43 -9 33 1 34 2 12 9 -36 12 -62 12 -55 0z"/>
<path d="M11530 4305 c-26 -32 13 -81 48 -59 34 22 22 74 -18 74 -10 0 -23 -7
-30 -15z"/>
<path d="M11261 4291 c-20 -13 -6 -41 21 -43 31 -2 60 1 78 8 12 4 10 9 -9 25
-24 20 -66 25 -90 10z"/>
<path d="M11480 3745 c-8 -9 -8 -15 -2 -15 12 0 26 19 19 26 -2 2 -10 -2 -17
-11z"/>
<path d="M11345 3740 c3 -5 25 -10 48 -9 36 1 38 2 17 9 -36 12 -72 12 -65 0z"/>
<path d="M11790 3735 c0 -8 -19 -25 -42 -37 -43 -22 -43 -23 -15 -26 38 -5 77
22 77 53 0 14 -4 25 -10 25 -5 0 -10 -7 -10 -15z"/>
<path d="M13856 4304 c-20 -19 -20 -38 -2 -54 23 -19 61 -8 64 18 7 44 -32 67
-62 36z"/>
<path d="M13581 4286 c-26 -31 72 -58 102 -27 10 10 8 15 -7 27 -25 18 -80 18
-95 0z"/>
<path d="M13808 3748 c-14 -14 -15 -18 -4 -18 8 0 17 7 20 16 9 23 4 24 -16 2z"/>
<path d="M14115 3738 c-6 -13 -25 -30 -43 -40 -47 -23 -50 -28 -14 -28 18 0
42 10 59 24 22 19 25 27 18 45 l-10 22 -10 -23z"/>
<path d="M13675 3740 c3 -5 23 -10 43 -9 33 1 34 2 12 9 -36 12 -62 12 -55 0z"/>
<path d="M16182 4308 c-22 -22 -14 -57 14 -64 38 -10 61 17 46 51 -12 27 -40
33 -60 13z"/>
<path d="M15913 4293 c-22 -8 -14 -33 14 -44 33 -12 83 -2 83 16 0 27 -60 44
-97 28z"/>
<path d="M16440 3753 c0 -22 -43 -63 -66 -63 -8 0 -14 -4 -14 -10 0 -15 37
-12 70 5 31 16 39 46 20 75 -8 12 -10 11 -10 -7z"/>
<path d="M16130 3745 c-8 -9 -8 -15 -2 -15 12 0 26 19 19 26 -2 2 -10 -2 -17
-11z"/>
<path d="M15995 3740 c3 -5 25 -10 48 -9 36 1 38 2 17 9 -36 12 -72 12 -65 0z"/>
<path d="M1071 3726 c-7 -8 -11 -25 -9 -38 2 -18 9 -23 32 -23 36 0 56 27 40
53 -14 22 -48 27 -63 8z"/>
<path d="M803 3713 c-19 -7 -16 -31 6 -43 25 -13 57 -13 82 1 20 10 20 11 3
30 -16 18 -62 24 -91 12z"/>
<path d="M1022 3164 c-7 -8 -8 -14 -3 -14 10 0 25 19 20 25 -2 1 -10 -3 -17
-11z"/>
<path d="M1335 3162 c-4 -13 -26 -32 -48 -43 -45 -24 -35 -44 14 -27 38 13 51
32 46 65 -4 27 -4 27 -12 5z"/>
<path d="M885 3160 c3 -5 23 -10 43 -9 30 0 33 2 17 9 -28 12 -67 12 -60 0z"/>
<path d="M3396 3724 c-31 -30 -8 -69 36 -62 26 3 37 41 18 64 -16 18 -35 18
-54 -2z"/>
<path d="M3125 3707 c-17 -13 -17 -15 6 -30 29 -21 59 -22 85 -2 19 15 19 15
0 30 -25 19 -66 19 -91 2z"/>
<path d="M3348 3168 c-14 -14 -15 -18 -4 -18 8 0 17 7 20 16 9 23 4 24 -16 2z"/>
<path d="M3652 3156 c-7 -16 -28 -34 -50 -43 -32 -14 -35 -17 -17 -23 22 -8
63 9 85 35 9 11 10 22 4 36 -10 21 -10 20 -22 -5z"/>
<path d="M3210 3160 c0 -5 17 -10 38 -9 30 0 33 2 17 9 -28 12 -55 12 -55 0z"/>
<path d="M5720 3726 c-19 -23 -8 -61 18 -64 44 -7 67 32 36 62 -19 20 -38 20
-54 2z"/>
<path d="M5453 3713 c-19 -7 -16 -31 6 -43 27 -14 64 -13 86 3 17 13 17 15 -6
30 -23 16 -61 21 -86 10z"/>
<path d="M5670 3165 c-8 -9 -8 -15 -2 -15 12 0 26 19 19 26 -2 2 -10 -2 -17
-11z"/>
<path d="M5535 3160 c3 -5 23 -10 43 -9 30 0 33 2 17 9 -28 12 -67 12 -60 0z"/>
<path d="M5980 3155 c0 -8 -19 -25 -42 -37 -41 -22 -42 -23 -16 -26 37 -4 78
24 78 54 0 13 -4 24 -10 24 -5 0 -10 -7 -10 -15z"/>
<path d="M8048 3729 c-38 -21 -11 -74 34 -67 26 3 37 41 18 64 -14 16 -28 17
-52 3z"/>
<path d="M7770 3705 c-17 -21 -3 -34 41 -41 22 -4 41 0 54 10 l20 15 -20 15
c-26 20 -79 20 -95 1z"/>
<path d="M8010 3192 c0 -6 -7 -18 -16 -26 -13 -14 -13 -16 0 -16 15 0 32 37
22 47 -3 4 -6 1 -6 -5z"/>
<path d="M8302 3156 c-7 -16 -28 -34 -50 -43 -32 -14 -35 -17 -17 -23 22 -8
63 9 85 35 9 11 10 22 4 36 -10 21 -10 20 -22 -5z"/>
<path d="M7855 3160 c3 -5 23 -10 43 -9 30 0 33 2 17 9 -28 12 -67 12 -60 0z"/>
<path d="M10370 3726 c-19 -23 -8 -61 18 -64 44 -7 67 32 36 62 -19 20 -38 20
-54 2z"/>
<path d="M10101 3711 c-20 -13 -6 -39 24 -47 34 -8 75 3 75 21 0 28 -67 46
-99 26z"/>
<path d="M10320 3165 c-8 -9 -8 -15 -2 -15 12 0 26 19 19 26 -2 2 -10 -2 -17
-11z"/>
<path d="M10185 3160 c3 -5 23 -10 43 -9 30 0 33 2 17 9 -28 12 -67 12 -60 0z"/>
<path d="M10630 3154 c0 -9 -17 -23 -40 -32 -46 -19 -51 -32 -15 -32 38 0 75
28 75 56 0 13 -4 24 -10 24 -5 0 -10 -7 -10 -16z"/>
<path d="M12692 3728 c-29 -29 -2 -72 40 -66 42 6 32 78 -11 78 -9 0 -22 -5
-29 -12z"/>
<path d="M12423 3713 c-22 -8 -14 -33 13 -43 34 -13 57 -13 78 3 17 13 17 14
1 30 -15 16 -65 21 -92 10z"/>
<path d="M12655 3181 c-3 -12 -11 -21 -16 -21 -5 0 -9 -4 -9 -10 0 -5 7 -7 15
-4 15 6 31 42 22 51 -3 2 -8 -5 -12 -16z"/>
<path d="M12956 3162 c-4 -12 -25 -31 -47 -42 -47 -24 -49 -30 -10 -30 17 0
42 10 58 24 23 20 26 27 17 47 l-11 24 -7 -23z"/>
<path d="M12505 3160 c3 -5 23 -10 43 -9 30 0 33 2 17 9 -28 12 -67 12 -60 0z"/>
<path d="M15020 3726 c-20 -25 -8 -61 22 -64 37 -4 57 31 32 59 -20 23 -37 24
-54 5z"/>
<path d="M14753 3713 c-20 -7 -15 -31 8 -44 27 -14 89 -3 89 16 0 27 -59 44
-97 28z"/>
<path d="M14970 3165 c-8 -9 -8 -15 -2 -15 12 0 26 19 19 26 -2 2 -10 -2 -17
-11z"/>
<path d="M15275 3157 c-6 -12 -28 -31 -50 -42 l-40 -20 32 -3 c41 -4 83 23 83
54 0 31 -14 37 -25 11z"/>
<path d="M14835 3160 c3 -5 23 -10 43 -9 30 0 33 2 17 9 -28 12 -67 12 -60 0z"/>
<path d="M17340 3725 c-7 -9 -10 -25 -6 -40 6 -22 11 -26 39 -23 25 2 33 8 35
26 7 44 -41 70 -68 37z"/>
<path d="M17071 3711 c-41 -26 44 -65 89 -41 21 11 21 12 4 31 -18 20 -68 25
-93 10z"/>
<path d="M17305 3181 c-3 -12 -11 -21 -16 -21 -5 0 -9 -4 -9 -10 0 -5 7 -7 15
-4 15 6 31 42 22 51 -3 2 -8 -5 -12 -16z"/>
<path d="M17606 3162 c-4 -12 -25 -31 -47 -42 -21 -11 -39 -23 -39 -25 0 -15
63 -2 85 18 22 18 25 26 17 47 l-9 25 -7 -23z"/>
<path d="M17155 3160 c3 -5 23 -10 43 -9 30 0 33 2 17 9 -28 12 -67 12 -60 0z"/>
<path d="M2236 3144 c-31 -30 -13 -67 30 -62 35 4 47 44 18 65 -23 17 -29 16
-48 -3z"/>
<path d="M1959 3124 c-27 -32 46 -58 92 -33 20 10 20 11 3 30 -21 23 -76 25
-95 3z"/>
<path d="M2492 2576 c-8 -18 -27 -34 -53 -44 -37 -14 -39 -17 -20 -24 44 -16
103 29 92 71 l-6 24 -13 -27z"/>
<path d="M2050 2581 c0 -10 96 -25 125 -19 10 1 20 9 23 16 3 11 1 11 -17 1
-16 -11 -29 -11 -66 -1 -54 14 -65 15 -65 3z"/>
<path d="M4556 3139 c-27 -40 13 -81 52 -53 26 18 28 37 6 58 -21 22 -40 20
-58 -5z"/>
<path d="M4282 3127 c-15 -17 -2 -34 31 -42 58 -15 104 20 58 45 -27 14 -76
13 -89 -3z"/>
<path d="M4820 2594 c0 -23 -20 -44 -64 -66 -29 -15 -29 -16 -8 -23 30 -9 86
24 90 53 2 12 -1 29 -7 39 -10 17 -10 16 -11 -3z"/>
<path d="M4507 2583 c-14 -14 -23 -15 -72 -4 -31 7 -59 10 -62 7 -12 -11 4
-17 68 -22 53 -5 67 -3 78 10 19 22 9 30 -12 9z"/>
<path d="M6880 3146 c-6 -8 -10 -25 -8 -38 2 -19 9 -23 38 -23 29 0 36 4 38
23 4 28 -14 52 -38 52 -10 0 -23 -7 -30 -14z"/>
<path d="M6609 3124 c-27 -32 46 -58 92 -33 20 10 20 11 3 30 -21 23 -76 25
-95 3z"/>
<path d="M6831 2583 c-10 -11 -24 -13 -50 -8 -90 17 -96 18 -85 5 7 -6 38 -14
71 -17 47 -4 61 -2 72 11 18 21 11 29 -8 9z"/>
<path d="M7142 2572 c-7 -12 -31 -30 -54 -39 -38 -15 -39 -17 -19 -25 15 -5
32 -3 52 8 33 16 43 33 37 61 -3 16 -5 15 -16 -5z"/>
<path d="M9206 3141 c-23 -25 -6 -61 29 -61 35 0 52 36 29 61 -9 10 -22 19
-29 19 -7 0 -20 -9 -29 -19z"/>
<path d="M8932 3127 c-14 -16 -4 -32 26 -41 31 -10 82 2 82 19 0 31 -86 48
-108 22z"/>
<path d="M9471 2594 c-1 -23 -21 -44 -65 -66 -28 -15 -29 -16 -8 -22 24 -8 80
17 88 39 3 8 1 27 -4 42 -9 23 -11 24 -11 7z"/>
<path d="M9159 2584 c-13 -16 -36 -16 -111 2 -16 4 -28 2 -28 -4 0 -10 55 -22
106 -22 29 0 64 24 52 35 -3 3 -11 -2 -19 -11z"/>
<path d="M11536 3147 c-29 -21 -17 -61 18 -65 43 -5 61 32 30 62 -19 19 -25
20 -48 3z"/>
<path d="M11263 3133 c-19 -7 -16 -31 6 -43 27 -14 64 -13 86 3 17 13 17 15
-6 30 -23 16 -61 21 -86 10z"/>
<path d="M11477 2583 c-14 -15 -22 -15 -72 -3 -30 7 -58 10 -62 7 -12 -13 4
-18 74 -24 61 -5 71 -3 77 12 9 25 3 28 -17 8z"/>
<path d="M11787 2571 c-2 -10 -23 -27 -46 -37 -38 -17 -40 -19 -20 -26 32 -12
83 21 87 55 4 30 -13 37 -21 8z"/>
<path d="M13854 3139 c-23 -25 -9 -53 29 -57 36 -4 56 32 31 59 -22 24 -36 24
-60 -2z"/>
<path d="M13582 3127 c-14 -16 -4 -32 26 -41 31 -10 82 2 82 19 0 31 -86 48
-108 22z"/>
<path d="M13809 2584 c-13 -16 -36 -16 -111 2 -16 4 -28 2 -28 -4 0 -10 55
-22 107 -22 22 0 36 6 43 20 13 24 7 26 -11 4z"/>
<path d="M14115 2577 c-6 -12 -27 -31 -49 -43 -35 -20 -37 -22 -17 -29 27 -8
91 29 91 53 0 32 -15 43 -25 19z"/>
<path d="M16180 3146 c-21 -26 -8 -61 24 -64 43 -5 61 32 30 62 -19 20 -38 20
-54 2z"/>
<path d="M15913 3133 c-19 -7 -16 -31 6 -43 27 -14 64 -13 86 3 17 13 17 15
-6 30 -23 16 -61 21 -86 10z"/>
<path d="M16437 2583 c-4 -22 -16 -34 -48 -48 -38 -17 -40 -20 -21 -28 15 -7
30 -4 54 10 34 20 46 50 30 79 -7 13 -10 11 -15 -13z"/>
<path d="M16127 2583 c-14 -15 -22 -15 -72 -3 -30 7 -58 10 -62 7 -12 -12 3
-17 68 -23 53 -5 67 -3 78 10 19 22 9 30 -12 9z"/>
<path d="M1078 2569 c-44 -25 -3 -93 42 -69 26 14 26 56 1 70 -23 12 -22 12
-43 -1z"/>
<path d="M808 2553 c-21 -5 -23 -24 -6 -41 15 -15 77 -16 98 -2 13 9 12 13 -9
30 -22 19 -46 23 -83 13z"/>
<path d="M880 2002 c0 -27 150 -28 158 -2 5 13 3 13 -11 1 -17 -13 -46 -12
-119 5 -17 4 -28 2 -28 -4z"/>
<path d="M1331 1992 c-7 -13 -31 -32 -53 -42 -34 -15 -37 -19 -21 -24 43 -14
97 25 91 66 l-3 23 -14 -23z"/>
<path d="M3398 2560 c-18 -15 -21 -22 -12 -36 28 -46 74 -38 74 12 0 35 -33
48 -62 24z"/>
<path d="M3124 2545 c-19 -15 -19 -15 0 -30 23 -17 74 -20 96 -5 13 9 12 13
-9 30 -28 24 -60 26 -87 5z"/>
<path d="M3351 2008 c-13 -21 -30 -21 -113 -2 -34 8 -38 -11 -5 -20 12 -3 43
-6 69 -6 38 0 50 4 58 21 15 28 8 34 -9 7z"/>
<path d="M3655 1997 c-6 -12 -30 -32 -54 -44 -42 -21 -43 -22 -17 -29 31 -7
96 29 96 54 0 32 -15 43 -25 19z"/>
<path d="M5728 2569 c-33 -19 -13 -79 26 -79 10 0 36 32 36 45 0 14 -27 45
-38 45 -4 0 -15 -5 -24 -11z"/>
<path d="M5458 2553 c-21 -5 -23 -24 -6 -41 16 -16 70 -15 92 1 15 11 16 15 3
25 -17 14 -65 22 -89 15z"/>
<path d="M5530 2001 c0 -23 145 -29 153 -6 5 12 2 12 -19 3 -19 -9 -36 -9 -70
0 -53 14 -64 15 -64 3z"/>
<path d="M5982 1993 c-6 -12 -30 -29 -52 -39 -31 -14 -37 -20 -26 -26 37 -21
100 22 94 64 l-3 23 -13 -22z"/>
<path d="M8046 2564 c-9 -8 -16 -22 -16 -29 0 -13 26 -45 36 -45 20 0 44 25
44 45 0 14 -8 29 -19 35 -25 13 -27 13 -45 -6z"/>
<path d="M7774 2545 c-19 -15 -19 -15 0 -30 23 -17 74 -20 96 -5 13 9 12 13
-9 30 -28 24 -60 26 -87 5z"/>
<path d="M8001 2009 c-13 -21 -40 -22 -113 -4 -17 4 -28 3 -28 -3 0 -11 48
-22 101 -22 29 0 41 5 49 21 15 27 8 34 -9 8z"/>
<path d="M8305 1997 c-6 -12 -30 -32 -54 -44 -42 -21 -43 -22 -17 -29 31 -7
96 29 96 54 0 32 -15 43 -25 19z"/>
<path d="M10378 2569 c-25 -14 -23 -56 3 -69 16 -9 25 -8 40 6 23 21 24 37 3
58 -18 19 -23 19 -46 5z"/>
<path d="M10100 2550 c-20 -13 -1 -44 30 -48 61 -9 96 29 44 48 -32 12 -55 12
-74 0z"/>
<path d="M10180 2001 c0 -23 132 -28 150 -5 12 13 10 14 -14 3 -21 -10 -37
-10 -72 -1 -53 14 -64 15 -64 3z"/>
<path d="M10627 1987 c-3 -8 -25 -23 -48 -34 -39 -19 -41 -21 -21 -27 30 -10
86 23 90 52 4 24 -13 30 -21 9z"/>
<path d="M12696 2564 c-9 -8 -16 -22 -16 -29 0 -13 26 -45 36 -45 20 0 44 25
44 45 0 14 -8 29 -19 35 -25 13 -27 13 -45 -6z"/>
<path d="M12425 2546 c-16 -12 -17 -16 -6 -30 15 -18 77 -21 101 -6 13 9 12
13 -9 30 -27 23 -60 26 -86 6z"/>
<path d="M12651 2009 c-13 -22 -28 -22 -118 -3 -20 4 -33 2 -33 -4 0 -11 56
-22 112 -22 28 0 40 5 48 21 15 27 8 34 -9 8z"/>
<path d="M12955 1997 c-6 -12 -30 -32 -54 -44 -42 -21 -43 -22 -17 -29 31 -7
96 29 96 54 0 32 -15 43 -25 19z"/>
<path d="M15028 2569 c-25 -14 -23 -56 3 -69 16 -9 25 -8 40 6 24 21 24 36 1
57 -21 20 -21 20 -44 6z"/>
<path d="M14750 2550 c-20 -13 -1 -44 30 -48 61 -9 96 29 44 48 -32 12 -55 12
-74 0z"/>
<path d="M14969 2004 c-13 -16 -36 -16 -111 2 -16 4 -28 2 -28 -4 0 -24 131
-30 150 -7 7 9 11 18 8 20 -3 3 -11 -2 -19 -11z"/>
<path d="M15280 1997 c0 -10 -19 -26 -47 -41 -42 -21 -45 -24 -25 -30 46 -15
113 47 83 77 -8 8 -11 6 -11 -6z"/>
<path d="M17348 2569 c-44 -25 -3 -93 42 -69 26 14 26 56 1 70 -23 12 -22 12
-43 -1z"/>
<path d="M17078 2553 c-21 -5 -23 -24 -6 -41 15 -15 77 -16 98 -2 13 9 12 13
-9 30 -22 19 -46 23 -83 13z"/>
<path d="M17301 2009 c-13 -22 -28 -22 -118 -3 -20 4 -33 2 -33 -4 0 -11 56
-22 112 -22 28 0 40 5 48 21 15 27 8 34 -9 8z"/>
<path d="M17602 1995 c-7 -15 -30 -34 -54 -45 -41 -18 -42 -19 -16 -25 18 -5
37 -1 57 11 36 21 43 36 33 65 -8 20 -8 20 -20 -6z"/>
<path d="M2231 1976 c-16 -20 -5 -53 20 -61 27 -9 51 13 47 44 -2 20 -9 27
-29 29 -14 2 -31 -4 -38 -12z"/>
<path d="M1965 1967 c-16 -13 -17 -17 -6 -31 15 -18 77 -22 101 -6 13 8 13 11
0 24 -23 23 -72 30 -95 13z"/>
<path d="M2181 1420 c-17 -15 -19 -20 -7 -20 8 0 20 9 26 20 13 25 11 25 -19
0z"/>
<path d="M2050 1421 c0 -11 36 -21 70 -20 18 0 12 4 -20 15 -54 16 -50 16 -50
5z"/>
<path d="M2492 1409 c-7 -11 -28 -27 -47 -36 -19 -9 -32 -20 -29 -25 10 -16
44 -7 75 20 24 22 30 32 23 45 -9 15 -11 15 -22 -4z"/>
<path d="M4549 1969 c-9 -18 -7 -25 9 -41 23 -24 58 -17 67 13 14 44 -53 69
-76 28z"/>
<path d="M4285 1964 c-26 -26 -1 -46 54 -42 54 4 67 27 26 46 -35 16 -61 15
-80 -4z"/>
<path d="M4817 1420 c-5 -24 -16 -35 -47 -49 -22 -10 -37 -21 -33 -24 23 -24
103 20 103 56 0 40 -17 52 -23 17z"/>
<path d="M4501 1419 c-22 -18 -22 -19 -3 -19 11 0 23 7 26 16 9 24 4 25 -23 3z"/>
<path d="M4370 1421 c0 -9 50 -21 84 -20 12 0 1 7 -24 15 -53 16 -60 17 -60 5z"/>
<path d="M6874 1965 c-10 -39 16 -63 51 -47 21 10 26 18 23 40 -2 22 -8 28
-35 30 -28 3 -33 -1 -39 -23z"/>
<path d="M6615 1967 c-16 -13 -17 -17 -6 -31 15 -18 77 -22 101 -6 13 8 13 11
0 24 -23 23 -72 30 -95 13z"/>
<path d="M6700 1421 c0 -11 36 -21 70 -20 18 0 12 4 -20 15 -54 16 -50 16 -50
5z"/>
<path d="M6826 1414 c-17 -12 -17 -14 -4 -14 9 0 20 5 23 11 11 17 2 18 -19 3z"/>
<path d="M7138 1409 c-9 -14 -30 -32 -47 -39 -17 -7 -28 -16 -25 -21 19 -32
98 20 92 61 l-3 24 -17 -25z"/>
<path d="M9199 1969 c-9 -18 -7 -25 9 -41 35 -35 85 -1 62 43 -14 26 -56 25
-71 -2z"/>
<path d="M8937 1969 c-14 -8 -15 -14 -6 -30 8 -16 19 -20 57 -17 55 4 68 27
27 46 -31 14 -54 15 -78 1z"/>
<path d="M9151 1419 c-22 -18 -22 -19 -3 -19 11 0 23 7 26 16 9 24 4 25 -23 3z"/>
<path d="M9466 1417 c-5 -20 -19 -34 -49 -47 -34 -15 -38 -20 -23 -26 22 -8
84 20 93 42 3 8 1 25 -4 37 -9 21 -10 21 -17 -6z"/>
<path d="M9020 1421 c0 -5 14 -11 31 -15 51 -10 66 -5 29 9 -42 16 -60 18 -60
6z"/>
<path d="M11527 1983 c-11 -11 -8 -48 5 -61 30 -30 75 0 64 43 -5 19 -13 25
-35 25 -15 0 -31 -3 -34 -7z"/>
<path d="M11265 1967 c-28 -21 -4 -47 44 -47 49 0 65 11 48 33 -17 24 -68 31
-92 14z"/>
<path d="M11478 1418 c-15 -15 -16 -18 -3 -18 9 0 18 7 22 15 8 23 0 24 -19 3z"/>
<path d="M11793 1433 c9 -15 -19 -49 -52 -63 -32 -13 -33 -30 -2 -30 47 0 93
75 59 96 -6 4 -8 3 -5 -3z"/>
<path d="M11350 1421 c0 -11 36 -21 70 -20 18 0 12 4 -20 15 -54 16 -50 16
-50 5z"/>
<path d="M13850 1975 c-25 -30 14 -74 53 -60 19 8 27 37 15 59 -11 20 -51 21
-68 1z"/>
<path d="M13585 1966 c-30 -22 -3 -46 51 -46 52 0 66 16 34 42 -27 22 -59 23
-85 4z"/>
<path d="M13801 1419 c-16 -13 -18 -19 -8 -19 15 0 43 27 36 34 -2 3 -15 -4
-28 -15z"/>
<path d="M14117 1418 c-5 -17 -21 -33 -49 -47 -33 -16 -38 -22 -24 -27 22 -8
84 20 93 42 3 8 1 25 -4 37 -10 21 -10 21 -16 -5z"/>
<path d="M13670 1421 c0 -5 14 -11 31 -15 51 -10 66 -5 29 9 -42 16 -60 18
-60 6z"/>
<path d="M16177 1983 c-12 -12 -7 -50 8 -63 32 -27 82 23 55 55 -13 15 -51 20
-63 8z"/>
<path d="M15918 1973 c-21 -5 -23 -24 -6 -41 18 -18 87 -15 95 4 3 8 2 19 -3
24 -12 12 -64 20 -86 13z"/>
<path d="M16438 1424 c-2 -23 -12 -34 -45 -50 -43 -22 -46 -34 -8 -34 51 0 91
60 66 99 -7 11 -10 7 -13 -15z"/>
<path d="M16140 1431 c0 -6 -10 -16 -22 -21 l-23 -9 23 0 c22 -1 41 23 28 36
-3 4 -6 1 -6 -6z"/>
<path d="M15996 1421 c-3 -5 8 -11 25 -15 51 -10 66 -5 29 9 -43 17 -47 17
-54 6z"/>
<path d="M1064 1396 c-15 -40 21 -80 54 -60 37 24 21 74 -25 74 -13 0 -26 -6
-29 -14z"/>
<path d="M812 1389 c-26 -10 -29 -34 -6 -43 44 -17 120 2 98 24 -17 17 -68 28
-92 19z"/>
<path d="M886 842 c-6 -10 26 -22 59 -22 16 1 17 2 5 9 -28 16 -58 22 -64 13z"/>
<path d="M1020 835 c-8 -9 -8 -15 -2 -15 12 0 26 19 19 26 -2 2 -10 -2 -17
-11z"/>
<path d="M1328 829 c-9 -14 -30 -32 -47 -39 -17 -7 -28 -16 -25 -21 19 -32 98
20 92 61 l-3 24 -17 -25z"/>
<path d="M3391 1396 c-28 -33 22 -83 55 -55 8 7 14 24 12 38 -2 20 -9 27 -29
29 -14 2 -31 -4 -38 -12z"/>
<path d="M3145 1392 c-58 -11 -34 -52 31 -52 46 0 63 13 45 34 -13 16 -47 24
-76 18z"/>
<path d="M3361 863 c-1 -6 -8 -19 -17 -27 -8 -9 -11 -16 -6 -16 15 0 34 28 29
42 -4 9 -6 9 -6 1z"/>
<path d="M3656 837 c-5 -20 -19 -34 -49 -47 -34 -15 -38 -20 -23 -26 22 -8 84
20 93 42 3 8 1 25 -4 37 -9 21 -10 21 -17 -6z"/>
<path d="M3215 840 c-6 -9 62 -26 70 -18 3 3 -11 9 -30 15 -19 6 -37 7 -40 3z"/>
<path d="M5717 1403 c-12 -12 -7 -50 8 -63 35 -29 85 26 53 58 -13 13 -50 16
-61 5z"/>
<path d="M5463 1390 c-27 -11 -30 -35 -7 -44 29 -11 81 -6 94 9 10 13 7 17
-23 30 -20 8 -38 15 -39 14 -2 0 -13 -4 -25 -9z"/>
<path d="M5535 840 c-2 -4 9 -10 26 -14 38 -7 54 -8 47 -1 -11 11 -68 23 -73
15z"/>
<path d="M5666 834 c-17 -12 -17 -14 -4 -14 9 0 20 5 23 11 11 17 2 18 -19 3z"/>
<path d="M5978 829 c-9 -14 -30 -32 -47 -39 -17 -7 -28 -16 -25 -21 19 -31 98
22 92 61 l-3 24 -17 -25z"/>
<path d="M8041 1396 c-16 -19 -11 -46 12 -60 25 -16 52 4 52 40 0 24 -5 30
-26 32 -14 2 -31 -4 -38 -12z"/>
<path d="M7795 1392 c-58 -11 -34 -52 31 -52 46 0 63 13 45 34 -13 16 -47 24
-76 18z"/>
<path d="M7997 844 c-10 -13 -14 -24 -9 -24 13 0 35 27 30 39 -1 5 -11 -2 -21
-15z"/>
<path d="M8302 831 c-8 -18 -27 -35 -50 -44 -31 -13 -34 -16 -18 -23 21 -8 85
22 93 44 3 7 2 22 -3 33 -8 18 -10 17 -22 -10z"/>
<path d="M7860 841 c0 -11 36 -21 70 -20 18 0 12 4 -20 15 -54 16 -50 16 -50
5z"/>
<path d="M10367 1403 c-12 -12 -7 -50 8 -63 32 -27 82 23 55 55 -13 15 -51 20
-63 8z"/>
<path d="M10112 1389 c-26 -10 -29 -34 -6 -43 25 -10 82 -7 89 4 17 27 -42 54
-83 39z"/>
<path d="M10185 840 c-2 -4 9 -10 26 -14 38 -7 54 -8 47 -1 -11 11 -68 23 -73
15z"/>
<path d="M10320 835 c-7 -9 -8 -15 -2 -15 5 0 12 7 16 15 3 8 4 15 2 15 -2 0
-9 -7 -16 -15z"/>
<path d="M10627 830 c-3 -11 -21 -27 -41 -37 -40 -19 -47 -33 -15 -33 29 0 79
38 79 60 0 26 -17 34 -23 10z"/>
<path d="M12691 1396 c-16 -19 -11 -46 12 -60 25 -16 52 4 52 40 0 24 -5 30
-26 32 -14 2 -31 -4 -38 -12z"/>
<path d="M12433 1389 c-27 -10 -30 -34 -7 -43 26 -10 92 -7 100 5 16 26 -53
54 -93 38z"/>
<path d="M12647 844 c-10 -13 -13 -24 -8 -24 10 0 36 39 29 45 -2 2 -11 -8
-21 -21z"/>
<path d="M12948 829 c-10 -16 -32 -36 -50 -44 -29 -12 -30 -14 -14 -21 20 -8
85 21 93 41 2 6 0 21 -4 33 -8 20 -9 20 -25 -9z"/>
<path d="M12506 841 c-6 -9 41 -21 78 -20 12 0 1 7 -24 15 -54 17 -48 16 -54
5z"/>
<path d="M15017 1403 c-12 -12 -7 -50 8 -63 17 -14 51 -5 59 16 13 35 -41 73
-67 47z"/>
<path d="M14762 1389 c-26 -10 -29 -34 -6 -43 25 -10 82 -7 89 4 17 27 -42 54
-83 39z"/>
<path d="M14835 839 c-6 -9 57 -23 77 -17 7 3 -7 9 -30 15 -23 6 -44 7 -47 2z"/>
<path d="M14966 835 c-11 -8 -15 -15 -9 -15 6 0 16 7 23 15 16 19 11 19 -14 0z"/>
<path d="M15277 830 c-3 -11 -21 -27 -41 -37 -40 -19 -47 -33 -15 -33 29 0 79
38 79 60 0 26 -17 34 -23 10z"/>
<path d="M17342 1398 c-25 -25 -7 -68 29 -68 25 0 42 26 35 55 -7 27 -42 35
-64 13z"/>
<path d="M17083 1389 c-27 -10 -30 -34 -7 -43 24 -9 77 -7 94 4 34 21 -44 57
-87 39z"/>
<path d="M17297 844 c-10 -13 -13 -24 -8 -24 10 0 36 39 29 45 -2 2 -11 -8
-21 -21z"/>
<path d="M17599 832 c-9 -16 -31 -35 -50 -44 -29 -15 -31 -18 -15 -24 21 -8
82 20 90 42 3 8 2 23 -2 34 -7 18 -8 17 -23 -8z"/>
<path d="M17156 842 c-3 -5 8 -12 25 -16 43 -8 57 -7 39 3 -28 16 -58 22 -64
13z"/>
<path d="M2230 815 c-26 -32 13 -81 48 -59 34 22 22 74 -18 74 -10 0 -23 -7
-30 -15z"/>
<path d="M1955 800 c-19 -31 67 -55 105 -30 13 9 12 12 -4 25 -23 17 -92 20
-101 5z"/>
<path d="M2050 259 c0 -11 43 -22 67 -17 11 2 2 8 -24 15 -24 6 -43 7 -43 2z"/>
<path d="M2180 255 c-8 -9 -8 -15 -2 -15 12 0 26 19 19 26 -2 2 -10 -2 -17
-11z"/>
<path d="M2496 252 c-4 -13 -23 -30 -42 -39 -36 -18 -45 -33 -19 -33 23 0 72
27 77 42 3 7 2 22 -2 33 -7 19 -7 19 -14 -3z"/>
<path d="M4550 811 c-19 -36 14 -70 53 -55 39 14 24 74 -18 74 -14 0 -29 -8
-35 -19z"/>
<path d="M4284 795 c-10 -24 6 -35 51 -35 48 0 64 13 45 35 -16 20 -89 20 -96
0z"/>
<path d="M4818 259 c-2 -16 -16 -31 -40 -44 -21 -11 -38 -23 -38 -27 0 -15 43
-8 71 13 29 21 36 43 20 68 -7 11 -10 9 -13 -10z"/>
<path d="M4375 260 c-6 -9 62 -26 70 -18 3 3 -11 9 -30 15 -19 6 -37 7 -40 3z"/>
<path d="M4510 255 c-7 -9 -8 -15 -2 -15 5 0 12 7 16 15 3 8 4 15 2 15 -2 0
-9 -7 -16 -15z"/>
<path d="M6880 815 c-26 -32 13 -81 48 -59 34 22 22 74 -18 74 -10 0 -23 -7
-30 -15z"/>
<path d="M6605 800 c-12 -19 17 -40 54 -40 51 0 67 12 46 34 -18 18 -90 22
-100 6z"/>
<path d="M6830 255 c-8 -9 -8 -15 -2 -15 12 0 26 19 19 26 -2 2 -10 -2 -17
-11z"/>
<path d="M7136 245 c-9 -14 -31 -31 -49 -39 -28 -12 -29 -15 -14 -21 12 -5 32
-1 53 8 28 14 34 22 34 47 0 36 -3 37 -24 5z"/>
<path d="M6710 250 c8 -5 29 -9 45 -9 26 0 27 2 10 9 -11 5 -31 9 -45 9 -20 1
-22 -1 -10 -9z"/>
<path d="M9200 811 c-19 -36 14 -70 53 -55 39 14 24 74 -18 74 -14 0 -29 -8
-35 -19z"/>
<path d="M8934 795 c-10 -24 6 -35 51 -35 48 0 64 13 45 35 -16 20 -89 20 -96
0z"/>
<path d="M9468 259 c-2 -16 -16 -31 -40 -44 -21 -11 -38 -23 -38 -27 0 -14 35
-8 68 12 32 20 40 42 23 69 -7 11 -10 9 -13 -10z"/>
<path d="M9156 255 c-16 -12 -17 -15 -4 -15 9 0 18 7 22 15 7 18 6 18 -18 0z"/>
<path d="M9035 250 c11 -5 31 -9 45 -9 23 0 23 1 5 9 -11 5 -31 9 -45 9 -23 0
-23 -1 -5 -9z"/>
<path d="M11530 815 c-26 -32 13 -81 48 -59 34 22 22 74 -18 74 -10 0 -23 -7
-30 -15z"/>
<path d="M11255 800 c-12 -19 17 -40 54 -40 51 0 67 12 46 34 -18 18 -90 22
-100 6z"/>
<path d="M11480 255 c-8 -9 -8 -15 -2 -15 12 0 26 19 19 26 -2 2 -10 -2 -17
-11z"/>
<path d="M11785 248 c-6 -13 -25 -31 -44 -40 -29 -15 -32 -18 -16 -24 10 -4
32 0 51 11 26 14 34 25 34 47 0 34 -12 36 -25 6z"/>
<path d="M11355 250 c11 -5 31 -9 45 -9 20 -1 22 1 10 9 -8 5 -28 9 -45 9 -26
0 -27 -2 -10 -9z"/>
<path d="M13850 811 c-12 -24 -4 -48 20 -56 38 -12 68 23 48 59 -12 22 -55 20
-68 -3z"/>
<path d="M13575 800 c-13 -21 17 -40 61 -40 47 0 63 13 44 35 -14 17 -95 20
-105 5z"/>
<path d="M14116 257 c-4 -18 -19 -33 -41 -44 -38 -18 -46 -33 -17 -33 24 0 82
37 81 52 0 7 -4 22 -8 33 -7 17 -8 17 -15 -8z"/>
<path d="M13804 255 c-10 -8 -14 -15 -8 -15 6 0 17 7 24 15 16 19 9 19 -16 0z"/>
<path d="M13685 250 c11 -5 31 -9 45 -9 23 0 23 1 5 9 -11 5 -31 9 -45 9 -23
0 -23 -1 -5 -9z"/>
<path d="M16180 815 c-26 -32 13 -81 48 -59 34 22 22 74 -18 74 -10 0 -23 -7
-30 -15z"/>
<path d="M15903 794 c-8 -21 14 -34 60 -34 40 0 62 24 36 41 -24 15 -89 11
-96 -7z"/>
<path d="M16440 262 c0 -22 -25 -47 -57 -56 -30 -10 -29 -26 1 -26 50 0 101
73 66 95 -5 3 -10 -2 -10 -13z"/>
<path d="M15995 260 c-5 -8 28 -20 59 -20 26 0 16 9 -23 20 -17 4 -33 5 -36 0z"/>
<path d="M16130 255 c-8 -9 -8 -15 -2 -15 12 0 26 19 19 26 -2 2 -10 -2 -17
-11z"/>
<path d="M12647 4334 c-10 -13 -13 -24 -8 -24 10 0 36 39 29 45 -2 2 -11 -8
-21 -21z"/>
<path d="M17297 4334 c-10 -13 -13 -24 -8 -24 10 0 36 39 29 45 -2 2 -11 -8
-21 -21z"/>
<path d="M1025 4330 c-10 -11 -13 -20 -7 -20 6 0 16 9 22 20 6 11 9 20 7 20
-2 0 -12 -9 -22 -20z"/>
<path d="M3659 4330 c-3 -17 -17 -32 -41 -45 -21 -11 -38 -23 -38 -27 0 -17
51 -7 76 15 24 21 26 27 17 53 l-10 29 -4 -25z"/>
<path d="M8306 4327 c-4 -18 -18 -33 -41 -44 -19 -9 -35 -20 -35 -25 0 -17 50
-7 76 15 23 21 26 27 17 53 l-10 29 -7 -28z"/>
<path d="M12957 4328 c-5 -19 -20 -34 -47 -48 -22 -11 -40 -23 -40 -25 0 -15
59 -2 84 18 26 21 28 27 19 53 l-10 29 -6 -27z"/>
<path d="M5670 4325 c-8 -9 -8 -15 -2 -15 12 0 26 19 19 26 -2 2 -10 -2 -17
-11z"/>
<path d="M10320 4325 c-7 -9 -8 -15 -2 -15 5 0 12 7 16 15 3 8 4 15 2 15 -2 0
-9 -7 -16 -15z"/>
<path d="M14970 4325 c-7 -9 -8 -15 -2 -15 5 0 12 7 16 15 3 8 4 15 2 15 -2 0
-9 -7 -16 -15z"/>
<path d="M17606 4322 c-4 -12 -26 -32 -49 -44 -36 -19 -39 -23 -20 -26 22 -3
77 20 87 37 3 5 2 20 -3 32 l-8 24 -7 -23z"/>
<path d="M890 4320 c8 -5 29 -9 45 -9 26 0 27 2 10 9 -11 5 -31 9 -45 9 -20 1
-22 -1 -10 -9z"/>
<path d="M1333 4315 c-3 -9 -24 -26 -47 -37 -33 -18 -37 -23 -21 -26 31 -7 85
27 85 55 0 26 -8 30 -17 8z"/>
<path d="M3220 4320 c8 -5 26 -9 40 -9 23 0 23 1 5 9 -11 5 -29 9 -40 9 -17 1
-17 -1 -5 -9z"/>
<path d="M3340 4320 c-13 -8 -12 -10 3 -10 9 0 17 5 17 10 0 12 -1 12 -20 0z"/>
<path d="M5540 4320 c8 -5 29 -9 45 -9 26 0 27 2 10 9 -11 5 -31 9 -45 9 -20
1 -22 -1 -10 -9z"/>
<path d="M5962 4300 c-18 -17 -39 -30 -47 -30 -8 0 -15 -4 -15 -10 0 -16 39
-12 71 7 19 11 29 26 29 40 0 13 -1 23 -2 23 -2 0 -18 -14 -36 -30z"/>
<path d="M7870 4320 c8 -5 26 -9 40 -9 23 0 23 1 5 9 -11 5 -29 9 -40 9 -17 1
-17 -1 -5 -9z"/>
<path d="M7990 4320 c-13 -8 -12 -10 3 -10 9 0 17 5 17 10 0 12 -1 12 -20 0z"/>
<path d="M10190 4320 c8 -5 29 -9 45 -9 26 0 27 2 10 9 -11 5 -31 9 -45 9 -20
1 -22 -1 -10 -9z"/>
<path d="M10626 4315 c-3 -9 -22 -25 -43 -38 -31 -18 -34 -22 -18 -26 32 -6
85 29 85 56 0 26 -15 31 -24 8z"/>
<path d="M12510 4320 c8 -5 29 -9 45 -9 26 0 27 2 10 9 -11 5 -31 9 -45 9 -20
1 -22 -1 -10 -9z"/>
<path d="M14840 4320 c8 -5 29 -9 45 -9 26 0 27 2 10 9 -11 5 -31 9 -45 9 -20
1 -22 -1 -10 -9z"/>
<path d="M15276 4315 c-3 -9 -22 -25 -43 -38 -31 -18 -34 -22 -18 -26 32 -6
85 29 85 56 0 26 -15 31 -24 8z"/>
<path d="M17160 4320 c8 -5 29 -9 45 -9 26 0 27 2 10 9 -11 5 -31 9 -45 9 -20
1 -22 -1 -10 -9z"/>
<path d="M18231 4286 c-26 -31 72 -58 102 -27 10 10 8 15 -7 27 -25 18 -80 18
-95 0z"/>
<path d="M18481 4274 c0 -11 3 -14 6 -6 3 7 2 16 -1 19 -3 4 -6 -2 -5 -13z"/>
<path d="M20 3755 c0 -31 2 -34 18 -25 9 5 30 15 45 20 40 14 28 34 -21 38
l-42 3 0 -36z"/>
<path d="M170 3753 c0 -22 -43 -63 -66 -63 -8 0 -14 -4 -14 -10 0 -16 39 -12
71 7 30 18 37 45 19 73 -8 12 -10 11 -10 -7z"/>
<path d="M18448 3748 c-14 -14 -15 -18 -4 -18 8 0 17 7 20 16 9 23 4 24 -16 2z"/>
<path d="M18325 3740 c3 -5 23 -10 43 -9 33 1 34 2 12 9 -36 12 -62 12 -55 0z"/>
<path d="M18232 3127 c-23 -27 26 -53 78 -42 34 7 37 17 14 39 -19 19 -77 21
-92 3z"/>
<path d="M18481 3114 c0 -11 3 -14 6 -6 3 7 2 16 -1 19 -3 4 -6 -2 -5 -13z"/>
<path d="M20 2596 l0 -34 43 16 c23 9 43 17 45 17 1 1 0 10 -4 19 -4 11 -18
16 -45 16 -38 0 -39 -1 -39 -34z"/>
<path d="M170 2594 c0 -23 -20 -44 -64 -66 -29 -15 -29 -16 -8 -23 30 -9 86
24 90 53 2 12 -1 29 -7 39 -10 17 -10 16 -11 -3z"/>
<path d="M18320 2581 c0 -11 103 -26 125 -17 8 3 15 10 15 16 0 6 -7 6 -19 -2
-15 -9 -28 -9 -59 0 -47 14 -62 15 -62 3z"/>
<path d="M18235 1966 c-16 -12 -17 -16 -6 -30 15 -18 77 -21 101 -6 13 9 12
13 -9 30 -27 23 -60 26 -86 6z"/>
<path d="M18481 1954 c0 -11 3 -14 6 -6 3 7 2 16 -1 19 -3 4 -6 -2 -5 -13z"/>
<path d="M20 1435 c0 -19 2 -35 4 -35 4 0 80 31 84 35 1 1 0 10 -4 19 -4 11
-18 16 -45 16 -38 0 -39 -1 -39 -35z"/>
<path d="M167 1420 c-5 -24 -16 -35 -47 -49 -22 -10 -37 -21 -33 -24 23 -24
103 20 103 56 0 40 -17 52 -23 17z"/>
<path d="M18441 1420 c-17 -15 -19 -20 -7 -20 8 0 20 9 26 20 13 25 11 25 -19
0z"/>
<path d="M18320 1421 c0 -13 26 -21 63 -20 l32 1 -35 13 c-42 16 -60 18 -60 6z"/>
<path d="M18225 800 c-13 -21 17 -40 61 -40 47 0 63 13 44 35 -14 17 -95 20
-105 5z"/>
<path d="M20 274 c0 -30 3 -35 18 -29 9 4 29 12 45 17 46 17 36 30 -30 42 -32
5 -33 5 -33 -30z"/>
<path d="M168 264 c-2 -22 -12 -34 -40 -49 -44 -23 -48 -35 -14 -35 52 0 92
59 67 99 -7 11 -10 7 -13 -15z"/>
<path d="M18440 255 c-8 -9 -8 -15 -2 -15 12 0 26 19 19 26 -2 2 -10 -2 -17
-11z"/>
<path d="M18335 250 c11 -5 31 -9 45 -9 23 0 23 1 5 9 -11 5 -31 9 -45 9 -23
0 -23 -1 -5 -9z"/>
<path d="M1070 235 c-15 -18 -10 -45 13 -59 34 -22 73 27 47 59 -16 19 -44 19
-60 0z"/>
<path d="M3392 238 c-30 -30 -1 -75 43 -64 22 6 26 11 23 39 -2 26 -8 33 -28
35 -14 2 -31 -3 -38 -10z"/>
<path d="M5720 235 c-26 -32 13 -81 48 -59 22 14 27 41 12 59 -16 19 -44 19
-60 0z"/>
<path d="M8042 238 c-30 -30 0 -75 43 -64 41 11 29 76 -15 76 -9 0 -21 -5 -28
-12z"/>
<path d="M10372 238 c-25 -25 -7 -68 29 -68 29 0 44 27 31 55 -12 27 -40 33
-60 13z"/>
<path d="M12692 238 c-30 -30 0 -75 43 -64 41 11 29 76 -15 76 -9 0 -21 -5
-28 -12z"/>
<path d="M15023 243 c-19 -7 -16 -60 3 -67 27 -11 43 -7 54 14 21 38 -14 71
-57 53z"/>
<path d="M17340 235 c-15 -18 -10 -45 13 -59 34 -22 73 27 47 59 -16 19 -44
19 -60 0z"/>
<path d="M793 214 c-3 -9 0 -20 8 -25 16 -10 70 -12 94 -3 14 6 14 8 -1 25
-22 24 -92 26 -101 3z"/>
<path d="M3121 221 c-12 -8 -12 -12 -2 -25 16 -19 96 -22 107 -4 17 27 -70 51
-105 29z"/>
<path d="M5443 214 c-8 -21 14 -34 59 -34 43 0 59 17 33 37 -26 19 -84 17 -92
-3z"/>
<path d="M7771 221 c-12 -8 -12 -12 -2 -25 16 -19 96 -22 107 -4 17 27 -70 51
-105 29z"/>
<path d="M10093 214 c-8 -21 14 -34 59 -34 41 0 56 14 38 35 -17 21 -89 20
-97 -1z"/>
<path d="M12421 221 c-12 -8 -12 -12 -2 -25 16 -19 96 -22 107 -4 17 27 -70
51 -105 29z"/>
<path d="M14744 215 c-10 -24 6 -35 51 -35 49 0 67 16 40 37 -25 18 -84 17
-91 -2z"/>
<path d="M17063 214 c-8 -22 14 -34 64 -34 48 0 65 17 38 37 -27 19 -94 17
-102 -3z"/>
</g>
</svg>
