<svg width="51" height="50" viewBox="0 0 51 50" fill="none" xmlns="http://www.w3.org/2000/svg">
<path d="M34.7044 10.4355C33.2382 8.75457 32.3568 6.56279 32.3568 4.16669H30.5196M34.7044 10.4355C36.0406 11.9679 37.8498 13.0824 39.91 13.5188C40.5502 13.6582 41.2182 13.7325 41.9142 13.7325V20.6049C38.351 20.6049 35.0474 19.4627 32.3564 17.5309V31.5081C32.3564 38.4921 26.6774 44.1667 19.7087 44.1667C16.0619 44.1667 12.7677 42.6063 10.4571 40.1267C8.35075 37.8607 7.06091 34.8329 7.06091 31.5081C7.06091 24.6263 12.5729 19.0169 19.4025 18.8683M34.7044 10.4355C34.6688 10.4122 34.6332 10.3887 34.5978 10.365M15.032 34.8701C14.3454 33.9229 13.9371 32.7621 13.9371 31.4989C13.9371 28.3135 16.526 25.7223 19.7089 25.7223C20.3028 25.7223 20.878 25.8243 21.4162 25.9915V18.9705C20.8594 18.8961 20.2935 18.8497 19.7089 18.8497C19.6068 18.8497 18.7846 18.9044 18.6825 18.9044M30.5098 4.16669H25.4804L25.4712 31.7217C25.3598 34.8051 22.8172 37.2849 19.7087 37.2849C17.7786 37.2849 16.0804 36.3283 15.0226 34.8795" stroke="#FFF5EF" stroke-width="3" stroke-linejoin="round"/>
</svg>
